<?xml version="1.0" encoding="UTF-8"?>
<svg version="1.1" xmlns="http://www.w3.org/2000/svg" width="1186" height="438">
<path d="M0 0 C391.38 0 782.76 0 1186 0 C1186 144.54 1186 289.08 1186 438 C794.62 438 403.24 438 0 438 C0 293.46 0 148.92 0 0 Z " fill="#E5E5E5" transform="translate(0,0)"/>
<path d="M0 0 C6.21127026 -0.12347317 12.42182856 -0.21427988 18.6340332 -0.2746582 C20.74776652 -0.29982363 22.86141265 -0.33395926 24.97485352 -0.37719727 C28.01079798 -0.43775941 31.04559362 -0.46618909 34.08203125 -0.48828125 C35.02899368 -0.51408768 35.97595612 -0.5398941 36.95161438 -0.56648254 C39.3980498 -0.56753162 41.60898874 -0.5169243 44 0 C45.98730469 2.18676758 45.98730469 2.18676758 47 5 C47.36407959 5.8765625 47.72815918 6.753125 48.10327148 7.65625 C48.43915283 8.5946875 48.77503418 9.533125 49.12109375 10.5 C49.49733887 11.54615479 49.87358398 12.59230957 50.26123047 13.67016602 C50.84348389 15.31843384 50.84348389 15.31843384 51.4375 17 C51.83855957 18.12398193 52.23961914 19.24796387 52.65283203 20.40600586 C55.0129044 27.06522928 57.24234703 33.7328124 59.24609375 40.5078125 C60.09987798 43.3301666 61.09916279 46.06437171 62.1640625 48.8125 C64.21143 54.1700972 66.08270617 59.59474789 68 65 C68.22558594 65.63550781 68.45117188 66.27101563 68.68359375 66.92578125 C70.46478983 71.94734533 72.23423383 76.97299196 74 82 C74.4945166 83.40572266 74.4945166 83.40572266 74.99902344 84.83984375 C76.06443786 87.87149478 77.12635025 90.90435386 78.1875 93.9375 C78.68697144 95.35760376 78.68697144 95.35760376 79.1965332 96.80639648 C81.29739674 102.82598562 83.2222487 108.8771885 85 115 C85.66 115 86.32 115 87 115 C87.20625 113.865625 87.4125 112.73125 87.625 111.5625 C88.8288175 106.11543924 90.71488071 100.96702318 92.61132812 95.73266602 C94.42871044 90.69361051 96.07524076 85.62715561 97.625 80.5 C99.10148266 75.64172705 100.78644127 71.04945201 102.96875 66.46484375 C104.67261035 62.39235936 105.86790051 58.15249867 107.14453125 53.93139648 C108.27481451 50.22547158 109.48367521 46.63320032 111 43.0625 C112.81111617 38.7274589 114.14061706 34.32104593 115.4375 29.8125 C117.07664056 24.11411329 118.76807482 18.44415833 120.625 12.8125 C121.00914062 11.64332031 121.39328125 10.47414062 121.7890625 9.26953125 C122.98547513 6.03921715 124.4377591 3.06637308 126 0 C132.24795675 -0.02527124 138.49590041 -0.04283344 144.74389648 -0.05493164 C146.87118014 -0.05997298 148.99846031 -0.06680591 151.12573242 -0.07543945 C154.17627826 -0.08751379 157.22677845 -0.09323014 160.27734375 -0.09765625 C161.71327126 -0.10539818 161.71327126 -0.10539818 163.1782074 -0.11329651 C164.49946373 -0.11340981 164.49946373 -0.11340981 165.84741211 -0.11352539 C166.62684677 -0.115746 167.40628143 -0.11796661 168.20933533 -0.12025452 C170 0 170 0 171 1 C171.19650013 2.81272333 171.32560996 4.63275524 171.4296875 6.453125 C171.5011499 7.66411865 171.5726123 8.8751123 171.64624023 10.12280273 C171.72256678 11.49853109 171.79881696 12.87426369 171.875 14.25 C171.95932761 15.70973933 172.04405768 17.16945546 172.12915039 18.62915039 C172.3717426 22.81632328 172.60782216 27.00384236 172.84246826 31.19146729 C173.12365516 36.20456888 173.40783172 41.21750175 173.69140625 46.23046875 C174.06894909 52.90518651 174.44566148 59.57994726 174.81933594 66.25488281 C175.4601953 77.67299381 176.11949762 89.08954444 176.82421875 100.50390625 C176.89139603 101.59381866 176.9585733 102.68373108 177.02778625 103.80667114 C177.12750984 105.42459061 177.12750984 105.42459061 177.22924805 107.07519531 C177.36121147 109.21679403 177.49312932 111.35839557 177.625 113.5 C177.68934235 114.54393921 177.75368469 115.58787842 177.81997681 116.66345215 C178.65641845 130.31219117 179.37313883 143.94999837 179.70947266 157.62109375 C179.84307547 162.84061957 180.22287034 167.8295809 181 173 C181.08793879 175.45711328 181.13024239 177.91631917 181.125 180.375 C181.12757813 181.59960938 181.13015625 182.82421875 181.1328125 184.0859375 C181 187 181 187 180 188 C176.97022196 188.08871273 173.96332978 188.1151935 170.93359375 188.09765625 C170.02497086 188.0962413 169.11634796 188.09482635 168.18019104 188.09336853 C165.26592779 188.08775193 162.35174019 188.07519665 159.4375 188.0625 C157.46679798 188.05748714 155.49609476 188.05292386 153.52539062 188.04882812 C148.68356441 188.03777711 143.84179505 188.02050138 139 188 C136.49355787 181.02694946 136.35092324 173.87534312 135.9296875 166.53515625 C135.84354449 165.13264344 135.75671106 163.73017289 135.66921997 162.32774353 C135.44207602 158.65720114 135.22424772 154.9861644 135.00842285 151.31494141 C134.78603088 147.56052537 134.55473907 143.80665854 134.32421875 140.05273438 C133.87415127 132.70232881 133.43393399 125.35137755 133 118 C130.84262774 120.15737226 130.45390153 121.24499368 129.59765625 124.10546875 C129.34693359 124.92466797 129.09621094 125.74386719 128.83789062 126.58789062 C128.58201172 127.44576172 128.32613281 128.30363281 128.0625 129.1875 C127.55697334 130.86957207 127.04790767 132.55058494 126.53515625 134.23046875 C126.312229 134.97707764 126.08930176 135.72368652 125.85961914 136.49291992 C125 139 125 139 123.56396484 142.32397461 C121.98924626 146.02527616 120.67742209 149.76315076 119.44140625 153.5859375 C118.96817168 155.02606556 118.49486205 156.46616897 118.02148438 157.90625 C117.29163353 160.13913818 116.56330988 162.37251015 115.83666992 164.60644531 C115.1256164 166.7884532 114.40876475 168.96849569 113.69140625 171.1484375 C113.48085098 171.80186127 113.27029572 172.45528503 113.05335999 173.12850952 C111.34399122 178.31094323 109.24878459 182.94023467 107 188 C92.81 188 78.62 188 64 188 C62.68 184.04 61.36 180.08 60 176 C58.66269515 172.33694759 57.27850733 168.70379556 55.84375 165.078125 C53.26573825 158.50733896 50.98436145 151.9284284 48.95703125 145.16796875 C47.41781449 140.07284716 45.72005774 135.03647044 44 130 C43.75958984 129.28602051 43.51917969 128.57204102 43.27148438 127.83642578 C42.48048279 125.49237207 41.67881054 123.15218896 40.875 120.8125 C40.62121582 120.05678711 40.36743164 119.30107422 40.10595703 118.52246094 C38.989664 114.52741862 38.989664 114.52741862 36 112 C36.01160156 113.13953125 36.02320313 114.2790625 36.03515625 115.453125 C36.09576686 124.19037771 35.99855397 132.89730113 35.5625 141.625 C35.52326416 142.4284082 35.48402832 143.23181641 35.44360352 144.05957031 C35.23918622 147.84344822 34.94936946 151.58960808 34.4921875 155.3515625 C33.73395893 161.81660725 33.65179663 168.32188053 33.48242188 174.82421875 C33.44826172 175.80519531 33.41410156 176.78617188 33.37890625 177.796875 C33.34132202 179.11703613 33.34132202 179.11703613 33.30297852 180.46386719 C33 183 33 183 31 188 C17.14 188 3.28 188 -11 188 C-11 167.28099814 -11 167.28099814 -10.59765625 160.24609375 C-10.55563583 159.44945816 -10.51361542 158.65282257 -10.47032166 157.83204651 C-10.38263148 156.18828265 -10.29270171 154.54463662 -10.20043945 152.90112305 C-10.06082956 150.40766566 -9.92932125 147.91387149 -9.79882812 145.41992188 C-9.71140413 143.79945392 -9.62353018 142.17901017 -9.53515625 140.55859375 C-9.49656998 139.83030869 -9.4579837 139.10202362 -9.41822815 138.35166931 C-9.21838543 134.84139185 -8.94208218 131.36344365 -8.52294922 127.87231445 C-7.77741218 121.42990813 -7.46832693 114.95688558 -7.09765625 108.484375 C-7.01444249 107.06454037 -6.93097639 105.64472051 -6.84727478 104.22491455 C-6.6274477 100.48796633 -6.41014633 96.75087626 -6.19366455 93.01373291 C-5.81043087 86.39960824 -5.42442019 79.78564751 -5.03515625 73.171875 C-4.99270279 72.45025366 -4.95024933 71.72863232 -4.9065094 70.98514366 C-4.0407138 56.31601888 -3.05215298 41.65700634 -2 27 C-1.93994781 26.16333801 -1.87989563 25.32667603 -1.81802368 24.46466064 C-1.51081615 20.20506241 -1.19551272 15.94611569 -0.875 11.6875 C-0.74544922 9.95209961 -0.74544922 9.95209961 -0.61328125 8.18164062 C-0.4095848 5.45437145 -0.20518832 2.72715725 0 0 Z " fill="#295160" transform="translate(270,145)"/>
<path d="M0 0 C95.7 0 191.4 0 290 0 C290 7.92 290 15.84 290 24 C202.55 24 115.1 24 25 24 C25 124.98 25 225.96 25 330 C120.37 330 215.74 330 314 330 C314 318.12 314 306.24 314 294 C317.774375 293.979375 321.54875 293.95875 325.4375 293.9375 C326.62915771 293.928396 327.82081543 293.91929199 329.04858398 293.90991211 C330.44572632 293.90616577 330.44572632 293.90616577 331.87109375 293.90234375 C332.82943115 293.89710693 333.78776855 293.89187012 334.77514648 293.88647461 C337 294 337 294 338 295 C338 314.47 338 333.94 338 354 C226.46 354 114.92 354 0 354 C0 237.18 0 120.36 0 0 Z " fill="#2B5362" transform="translate(28,63)"/>
<path d="M0 0 C1.77206191 0.00025118 3.5441287 0.00581561 5.31616211 0.01586914 C6.14079956 0.01687622 6.96543701 0.0178833 7.81506348 0.0189209 C10.90789166 0.02416947 14.0007001 0.03813062 17.09350586 0.05102539 C24.00288086 0.07165039 30.91225586 0.09227539 38.03100586 0.11352539 C38.36100586 24.20352539 38.69100586 48.29352539 39.03100586 73.11352539 C56.52100586 73.44352539 74.01100586 73.77352539 92.03100586 74.11352539 C92.0194043 68.85543945 92.00780273 63.59735352 91.99584961 58.17993164 C91.99074277 54.85766479 91.98592899 51.53540275 91.98217773 48.21313477 C91.97618961 42.93472291 91.96909014 37.65632832 91.95556641 32.37792969 C91.94473642 28.12451424 91.93872879 23.8711173 91.93612862 19.61768913 C91.93427457 17.99130906 91.93065434 16.36493005 91.9252758 14.73855782 C91.91806388 12.46842346 91.91701498 10.19836654 91.91748047 7.92822266 C91.91525986 6.63360611 91.91303925 5.33898956 91.91075134 4.00514221 C92.03100586 1.11352539 92.03100586 1.11352539 93.03100586 0.11352539 C106.89100586 0.11352539 120.75100586 0.11352539 135.03100586 0.11352539 C135.03100586 62.15352539 135.03100586 124.19352539 135.03100586 188.11352539 C121.17100586 188.11352539 107.31100586 188.11352539 93.03100586 188.11352539 C92.03100586 187.11352539 92.03100586 187.11352539 91.91075134 184.33580017 C91.91297195 183.0944783 91.91519257 181.85315643 91.91748047 180.57421875 C91.91733444 179.89132278 91.91718842 179.20842682 91.91703796 178.50483704 C91.9177371 176.23764925 91.92552946 173.97054265 91.93334961 171.70336914 C91.93521379 170.13538152 91.93663769 168.56739332 91.93763733 166.99940491 C91.94146252 162.86476036 91.9512928 158.73015073 91.96234131 154.59552002 C91.97435004 149.63876822 91.97895767 144.68200478 91.98479462 139.72524261 C91.99450456 132.18797923 92.01366109 124.65079251 92.03100586 117.11352539 C74.21100586 117.11352539 56.39100586 117.11352539 38.03100586 117.11352539 C38.03100586 140.54352539 38.03100586 163.97352539 38.03100586 188.11352539 C31.12163086 188.13415039 24.21225586 188.15477539 17.09350586 188.17602539 C14.90991455 188.18512939 12.72632324 188.1942334 10.4765625 188.20361328 C8.75642966 188.20653237 7.03629614 188.20908094 5.31616211 188.21118164 C4.41442261 188.21629761 3.51268311 188.22141357 2.58361816 188.22668457 C0.39908841 188.22699421 -1.78535744 188.17598409 -3.96899414 188.11352539 C-5.64979421 186.43272532 -5.09372542 184.36477797 -5.10273755 182.12090683 C-5.10050682 181.40078541 -5.0982761 180.68066399 -5.09597778 179.9387207 C-5.09753777 179.17903111 -5.09909776 178.41934151 -5.10070503 177.63663101 C-5.10471794 175.07161818 -5.10152427 172.50666374 -5.09838867 169.94165039 C-5.09974258 168.11063604 -5.10152246 166.27962196 -5.10369873 164.4486084 C-5.10827426 159.46114947 -5.10648301 154.47371114 -5.10331964 149.48625183 C-5.10079666 144.27900129 -5.10313341 139.07175256 -5.10470581 133.86450195 C-5.10652769 125.11807945 -5.10412072 116.37166537 -5.09936523 107.62524414 C-5.09392258 97.49770049 -5.09568522 87.37017698 -5.10119164 77.24263382 C-5.10572226 68.56411186 -5.10637357 59.88559597 -5.10375297 51.20707321 C-5.10218991 46.01642273 -5.10199721 40.82578172 -5.10528946 35.63513184 C-5.10816743 30.75641431 -5.10619385 25.87772287 -5.1003952 20.99900818 C-5.0990672 19.20303898 -5.09946239 17.4070676 -5.10165787 15.61109924 C-5.10436782 13.17014604 -5.10099017 10.72927778 -5.09597778 8.28833008 C-5.0982085 7.56820866 -5.10043923 6.84808723 -5.10273755 6.10614395 C-5.0787967 0.14526914 -5.0787967 0.14526914 0 0 Z " fill="#295160" transform="translate(113.968994140625,144.886474609375)"/>
<path d="M0 0 C1.42119141 0.63615234 1.42119141 0.63615234 2.87109375 1.28515625 C16.86410747 8.25255143 26.55269142 19.48107792 32 34 C33 39 33 39 33 50 C19.14 50 5.28 50 -9 50 C-9.99 47.525 -9.99 47.525 -11 45 C-14.57977176 41.52324326 -18.64618496 39.67338295 -23.625 39.4375 C-27.96587409 39.68533537 -30.6654782 41.16565647 -34 44 C-35.59182165 47.1836433 -35.39912479 50.53426643 -35 54 C-33.61114752 56.81780534 -33.61114752 56.81780534 -32 59 C-32 59.66 -32 60.32 -32 61 C-31.47921875 61.11843262 -30.9584375 61.23686523 -30.421875 61.35888672 C-25.22915105 62.73349288 -20.18170935 64.61974225 -15.11279297 66.390625 C-13.72036519 66.87461192 -12.32618134 67.35358014 -10.93017578 67.82714844 C10.0236017 74.93976131 24.79813699 85.6289327 35.703125 105.09375 C41.58372167 118.27195458 41.17239537 136.88982638 36.9375 150.5 C34.46258221 156.652338 31.19591961 161.8850626 27 167 C26.45859375 167.67933594 25.9171875 168.35867188 25.359375 169.05859375 C22.85114628 172.1052049 20.40780188 174.93097743 17 177 C16.34 177 15.68 177 15 177 C15 177.66 15 178.32 15 179 C4.08613744 187.62269051 -13.11497344 192.31563663 -27 191 C-35.75168212 189.76901391 -44.19339447 188.35170478 -52 184 C-52.81855469 183.5565625 -53.63710938 183.113125 -54.48046875 182.65625 C-67.60238664 175.19204255 -77.26078842 164.63785151 -82.625 150.4375 C-83.05039062 149.32246094 -83.47578125 148.20742188 -83.9140625 147.05859375 C-86.67423709 139.28443294 -86 135.57751197 -86 126 C-72.14 126 -58.28 126 -44 126 C-42.515 130.95 -42.515 130.95 -41 136 C-38.46926875 140.16682143 -35.45347192 143.24166683 -31.125 145.5 C-23.19410384 146.76894338 -16.97129738 146.34483664 -10 142 C-5.01180647 136.76239679 -4.62862168 133.04085814 -4.73828125 125.98046875 C-5.105633 121.79704514 -5.98345157 119.94472585 -9 117 C-15.86269867 112.23126507 -24.30379973 110.20440864 -32.16650391 107.65869141 C-49.46910231 101.97737906 -65.07659885 92.46579974 -74 76 C-75.56566888 72.39484139 -76.8320516 68.7509112 -78 65 C-78.3403125 64.01773438 -78.3403125 64.01773438 -78.6875 63.015625 C-82.96893174 49.10097185 -79.10275553 35.43345141 -72.77050781 22.94091797 C-70.33108846 18.34612125 -67.71587456 14.62945888 -64 11 C-63.34 11 -62.68 11 -62 11 C-62 10.34 -62 9.68 -62 9 C-45.88742608 -5.43948498 -19.60567771 -8.8515085 0 0 Z " fill="#295160" transform="translate(543,146)"/>
<path d="M0 0 C0.87760986 -0.00315216 1.75521973 -0.00630432 2.65942383 -0.009552 C3.61357178 -0.00752777 4.56771973 -0.00550354 5.55078125 -0.00341797 C6.52362061 -0.00437469 7.49645996 -0.00533142 8.4987793 -0.00631714 C10.56005925 -0.00699905 12.62134133 -0.00514399 14.68261719 -0.00097656 C17.84965813 0.00437153 21.01655725 -0.00092119 24.18359375 -0.00732422 C26.1809899 -0.00666344 28.17838596 -0.00538228 30.17578125 -0.00341797 C31.1299292 -0.0054422 32.08407715 -0.00746643 33.06713867 -0.009552 C34.38355347 -0.00482376 34.38355347 -0.00482376 35.7265625 0 C36.50298096 0.00079559 37.27939941 0.00159119 38.0793457 0.00241089 C39.86328125 0.12939453 39.86328125 0.12939453 40.86328125 1.12939453 C40.96112627 2.46953739 40.99126102 3.81473802 40.99267578 5.15844727 C40.99582794 6.01280869 40.9989801 6.8671701 41.00222778 7.74742126 C41.00020355 8.67655838 40.99817932 9.6056955 40.99609375 10.56298828 C40.99705048 11.51125992 40.9980072 12.45953156 40.99899292 13.4365387 C40.99967488 15.44654405 40.99781948 17.45655159 40.99365234 19.46655273 C40.98831021 22.55018043 40.99359375 25.63366206 41 28.71728516 C40.99933911 30.66585319 40.99805771 32.61442113 40.99609375 34.56298828 C40.99811798 35.49010117 41.00014221 36.41721405 41.00222778 37.37242126 C40.99749954 38.65869164 40.99749954 38.65869164 40.99267578 39.97094727 C40.99188019 40.72738022 40.99108459 41.48381317 40.99026489 42.26316833 C40.86328125 44.12939453 40.86328125 44.12939453 39.86328125 46.12939453 C33.7760447 46.15406534 27.68883708 46.17224057 21.6015625 46.18432617 C19.52961724 46.18936305 17.45767555 46.19619278 15.38574219 46.20483398 C12.41210043 46.21692774 9.43850556 46.2226292 6.46484375 46.22705078 C5.53459381 46.23221207 4.60434387 46.23737335 3.64590454 46.24269104 C2.78516327 46.24276657 1.924422 46.2428421 1.03759766 46.24291992 C0.2781485 46.24514053 -0.48130066 46.24736115 -1.26376343 46.24964905 C-3.13671875 46.12939453 -3.13671875 46.12939453 -5.13671875 45.12939453 C-5.16198999 38.88143778 -5.17955219 32.63349412 -5.19165039 26.38549805 C-5.19669173 24.25821439 -5.20352466 22.13093422 -5.2121582 20.00366211 C-5.22423254 16.95311627 -5.22994889 13.90261608 -5.234375 10.85205078 C-5.23953629 9.89476578 -5.24469757 8.93748077 -5.25001526 7.95118713 C-5.25009079 7.07034958 -5.25016632 6.18951202 -5.25024414 5.28198242 C-5.25246475 4.50254776 -5.25468536 3.7231131 -5.25697327 2.9200592 C-5.02181416 -0.58160642 -3.01629619 0.00309079 0 0 Z " fill="#4595B7" transform="translate(335.13671875,90.87060546875)"/>
<path d="M0 0 C4.29 0 8.58 0 13 0 C17.69876594 11.4649889 22.20666663 22.89555541 25 35 C28.28119676 33.35940162 28.69195859 29.76962423 29.8203125 26.46484375 C30.08383514 25.71159317 30.34735779 24.95834259 30.61886597 24.18226624 C31.46112904 21.76967769 32.29315133 19.35369677 33.125 16.9375 C33.69334076 15.30380334 34.26234274 13.67033655 34.83203125 12.03710938 C36.22904808 8.02736919 37.61688901 4.01455697 39 0 C41.14576637 -0.02685938 43.29162645 -0.04633088 45.4375 -0.0625 C46.63246094 -0.07410156 47.82742188 -0.08570313 49.05859375 -0.09765625 C52 0 52 0 53 1 C53.09839214 2.5293463 53.12798539 4.06319566 53.12939453 5.59570312 C53.13254669 6.57341675 53.13569885 7.55113037 53.13894653 8.55847168 C53.1369223 9.62198853 53.13489807 10.68550537 53.1328125 11.78125 C53.13376923 12.86506958 53.13472595 13.94888916 53.13571167 15.06555176 C53.13639365 17.3622239 53.13453811 19.65889795 53.13037109 21.95556641 C53.12502312 25.48474428 53.1303155 29.01379487 53.13671875 32.54296875 C53.13605797 34.76822945 53.13477682 36.99349007 53.1328125 39.21875 C53.13483673 40.28226685 53.13686096 41.34578369 53.13894653 42.44152832 C53.13421829 43.90809875 53.13421829 43.90809875 53.12939453 45.40429688 C53.12859894 46.26953979 53.12780334 47.13478271 53.12698364 48.02624512 C53 50 53 50 52 51 C50.50261876 51.0979057 49.00057108 51.12974864 47.5 51.125 C46.6853125 51.12757813 45.870625 51.13015625 45.03125 51.1328125 C43 51 43 51 42 50 C41.9116033 47.6243148 41.88469695 45.27791326 41.90234375 42.90234375 C41.9037587 42.19348526 41.90517365 41.48462677 41.90663147 40.75428772 C41.91224557 38.48198288 41.92480037 36.20977525 41.9375 33.9375 C41.94251319 32.40039204 41.94707641 30.86328255 41.95117188 29.32617188 C41.96221958 25.55074358 41.97949359 21.77538829 42 18 C41.73445312 18.88042969 41.46890625 19.76085937 41.1953125 20.66796875 C40.66550781 22.41013672 40.66550781 22.41013672 40.125 24.1875 C39.77695312 25.33605469 39.42890625 26.48460937 39.0703125 27.66796875 C38.15781129 30.50871157 37.15019636 33.24885465 36 36 C35.34 36 34.68 36 34 36 C33.896875 36.99 33.79375 37.98 33.6875 39 C33.09191294 43.28297163 31.61404973 46.99996371 30 51 C27.69 51 25.38 51 23 51 C20.04780355 45.38378247 17.75932323 39.84512367 15.8125 33.8125 C15.55275391 33.03197266 15.29300781 32.25144531 15.02539062 31.44726562 C13.78098108 27.65615747 12.6563945 23.94627534 12 20 C11.34 20 10.68 20 10 20 C10 30.23 10 40.46 10 51 C6.7 51 3.4 51 0 51 C0 34.17 0 17.34 0 0 Z " fill="#495069" transform="translate(654,215)"/>
<path d="M0 0 C0.639375 0.33 1.27875 0.66 1.9375 1 C2.2675 0.67 2.5975 0.34 2.9375 0 C4.45678038 -0.07179964 5.97917482 -0.08392007 7.5 -0.0625 C8.32628906 -0.05347656 9.15257812 -0.04445312 10.00390625 -0.03515625 C10.64199219 -0.02355469 11.28007813 -0.01195312 11.9375 0 C12.03690554 5.40766124 12.10922051 10.81478228 12.15722656 16.22314453 C12.17725373 18.06015293 12.20448382 19.89709829 12.23925781 21.73388672 C12.28817065 24.38525002 12.31055763 27.03576541 12.328125 29.6875 C12.34877014 30.49928711 12.36941528 31.31107422 12.39068604 32.14746094 C12.39290715 37.88327414 11.16024347 42.2113809 7.9375 47 C3.84411327 50.80100196 -0.03066609 51.74816461 -5.45703125 52.109375 C-10.52071652 51.8968065 -15.43538687 50.62711313 -19.0625 47 C-18.70894564 44.73725212 -18.08705574 43.04911148 -17.0625 41 C-12.3125 41.875 -12.3125 41.875 -10.0625 43 C-6.48701547 43.26485071 -3.92959657 43.43354828 -0.6875 41.8125 C1.30524166 39.58982661 1.62056247 37.93167219 1.9375 35 C0.4215625 35.7734375 0.4215625 35.7734375 -1.125 36.5625 C-5.08653723 38.25115526 -7.85065025 38.09196105 -12.0625 37 C-16.60087232 34.99467269 -18.62247286 32.2700475 -21.0625 28 C-23.15324335 21.8113997 -23.49663004 12.70731541 -21.12109375 6.56640625 C-15.81300262 -1.17109336 -8.62428147 -2.81609191 0 0 Z " fill="#494F68" transform="translate(866.0625,229)"/>
<path d="M0 0 C2.8125 1.5625 2.8125 1.5625 5 3 C8.09530729 2.72688465 9.33437355 1.7770843 12 0 C16.03275686 -0.65940086 20.14451296 -0.8464951 23.91796875 0.875 C27.88283774 3.85109919 29.23010746 7.29898946 30 12 C30.25440126 16.29546746 30.23414883 20.57348692 30.1875 24.875 C30.18685547 26.02742188 30.18621094 27.17984375 30.18554688 28.3671875 C30.14048144 36.85951856 30.14048144 36.85951856 29 38 C27.50261876 38.0979057 26.00057108 38.12974864 24.5 38.125 C23.6853125 38.12757813 22.870625 38.13015625 22.03125 38.1328125 C20 38 20 38 19 37 C18.91232888 34.92737924 18.89304127 32.85179706 18.90234375 30.77734375 C18.90556641 29.51728516 18.90878906 28.25722656 18.91210938 26.95898438 C18.92046597 25.61848891 18.92893093 24.27799412 18.9375 22.9375 C18.9425134 21.59310058 18.94707658 20.2486994 18.95117188 18.90429688 C18.96300512 15.60282059 18.97949029 12.30143197 19 9 C17.52093108 8.97310784 16.04172517 8.95365379 14.5625 8.9375 C13.73878906 8.92589844 12.91507813 8.91429687 12.06640625 8.90234375 C10.00836062 8.76732652 10.00836062 8.76732652 9 10 C8.8415735 12.0708472 8.74875578 14.14678029 8.68359375 16.22265625 C8.62075195 18.11274414 8.62075195 18.11274414 8.55664062 20.04101562 C8.51682404 21.38150736 8.47711186 22.7220022 8.4375 24.0625 C8.39431958 25.40691523 8.35070544 26.7513166 8.30664062 28.09570312 C8.20014642 31.3970234 8.0981354 34.69842236 8 38 C4.7 38 1.4 38 -2 38 C-2 28.43 -2 18.86 -2 9 C-5.3 9 -8.6 9 -12 9 C-13.79911112 10.79911112 -13.21547279 13.53779221 -13.28125 15.96875 C-13.31863281 17.17917969 -13.35601563 18.38960937 -13.39453125 19.63671875 C-13.42933594 20.91160156 -13.46414063 22.18648437 -13.5 23.5 C-13.5685385 26.01054001 -13.64122276 28.52097149 -13.71875 31.03125 C-13.76418945 32.71057617 -13.76418945 32.71057617 -13.81054688 34.42382812 C-14 37 -14 37 -15 38 C-16.8125 38.1328125 -16.8125 38.1328125 -19 38.125 C-19.721875 38.12757813 -20.44375 38.13015625 -21.1875 38.1328125 C-23 38 -23 38 -24 37 C-24.08855161 34.3337397 -24.11524673 31.69352886 -24.09765625 29.02734375 C-24.0962413 28.22970108 -24.09482635 27.43205841 -24.09336853 26.61024475 C-24.08775316 24.05262565 -24.07519812 21.49509282 -24.0625 18.9375 C-24.05748698 17.20768355 -24.05292373 15.47786574 -24.04882812 13.74804688 C-24.03777875 9.49866447 -24.02050386 5.24934688 -24 1 C-21.03 1 -18.06 1 -15 1 C-15 1.66 -15 2.32 -15 3 C-14.195625 2.505 -13.39125 2.01 -12.5625 1.5 C-8.20585887 -0.33437521 -4.66706407 -0.68277419 0 0 Z " fill="#4A516A" transform="translate(956,228)"/>
<path d="M0 0 C3.3 0 6.6 0 10 0 C10 6.6 10 13.2 10 20 C16.6 20 23.2 20 30 20 C30 13.4 30 6.8 30 0 C33.3 0 36.6 0 40 0 C41 1 41 1 41.12025452 2.98048401 C41.11803391 3.84874313 41.11581329 4.71700226 41.11352539 5.61157227 C41.11344986 6.59251358 41.11337433 7.5734549 41.11329651 8.5841217 C41.10813522 9.6507756 41.10297394 10.7174295 41.09765625 11.81640625 C41.0962413 12.9025975 41.09482635 13.98878876 41.09336853 15.1078949 C41.08775048 18.59279075 41.07519492 22.07762342 41.0625 25.5625 C41.05748733 27.91861887 41.05292402 30.27473874 41.04882812 32.63085938 C41.03777518 38.42059743 41.02049846 44.21028799 41 50 C37.37 50 33.74 50 30 50 C30 42.74 30 35.48 30 28 C23.4 28 16.8 28 10 28 C10 35.26 10 42.52 10 50 C6.7 50 3.4 50 0 50 C0 33.5 0 17 0 0 Z " fill="#474E67" transform="translate(654,149)"/>
<path d="M0 0 C4.80405454 3.32044946 7.38501017 9.13431428 8.47265625 14.73828125 C8.75637224 20.89368465 7.10990694 26.76912981 3.5390625 31.75 C-0.47986367 35.95545861 -3.75604655 37.11364885 -9.5625 37.3125 C-14.77087365 37.02348042 -17.96614643 36.18903526 -21.9375 32.625 C-22.68 32.233125 -23.4225 31.84125 -24.1875 31.4375 C-27.82433994 27.67077292 -27.84774488 21.94888798 -28.1875 16.9375 C-27.72987939 10.87402697 -25.73431385 6.37101732 -21.9375 1.625 C-16.06661435 -2.77816424 -6.64978702 -3.07698478 0 0 Z " fill="#474E67" transform="translate(725.9375,296.375)"/>
<path d="M0 0 C4.46559659 2.14783641 7.27147023 4.90720535 10 9 C11.50983551 15.03934206 12.42923856 22.51265792 10.0234375 28.3828125 C7.55561402 32.48575828 4.93793002 36.12554117 0.17578125 37.54296875 C-5.7181435 38.78101039 -11.14567182 38.93282013 -16.4375 35.8125 C-20.29669398 33.05037527 -22.29409851 30.31022304 -23.6875 25.75 C-24.4811233 18.76611493 -24.68327707 12.23846558 -21 6 C-14.90233282 -0.55295967 -8.62307838 -1.08668899 0 0 Z " fill="#474E67" transform="translate(883,295)"/>
<path d="M0 0 C2.87983559 2.28910008 4.73924511 4.53292405 6 8 C6.125 10.75 6.125 10.75 6 13 C3.03 13 0.06 13 -3 13 C-3.433125 12.030625 -3.86625 11.06125 -4.3125 10.0625 C-5.7014861 6.72268235 -5.7014861 6.72268235 -9 6 C-12.68382769 5.86843473 -15.49053585 5.83017862 -19 7 C-19.33 9.64 -19.66 12.28 -20 15 C-17.31005837 16.0970153 -14.61553174 17.13713824 -11.87890625 18.11328125 C-4.23027301 20.87904144 1.38079447 23.0711917 6 30 C6.74513137 34.54876711 6.40495541 38.14149452 4.4375 42.3125 C0.56666218 46.58034683 -2.34881388 48.66475324 -8.02734375 49.3828125 C-15.89562297 49.65824818 -22.49881185 48.77040701 -28.66015625 43.609375 C-31.14176703 40.98260036 -31.97907161 39.22602665 -32.3125 35.625 C-32.209375 34.75875 -32.10625 33.8925 -32 33 C-28.7 33 -25.4 33 -22 33 C-21.34 35.31 -20.68 37.62 -20 40 C-17.87527424 40.05386629 -15.75016348 40.09273071 -13.625 40.125 C-12.44164062 40.14820313 -11.25828125 40.17140625 -10.0390625 40.1953125 C-6.88846183 40.32866229 -6.88846183 40.32866229 -5 38 C-4.83318891 34.91652174 -4.83318891 34.91652174 -5 32 C-9.13135641 29.42937824 -12.9992016 27.59608675 -17.625 26.0625 C-22.34591579 24.42410261 -24.85935595 22.84982174 -28 19 C-28.66 18.34 -29.32 17.68 -30 17 C-30.66884473 12.69123182 -30.93590223 8.08906748 -29.125 4.046875 C-21.89906424 -5.36585711 -9.70715329 -4.58068479 0 0 Z " fill="#484F68" transform="translate(684,284)"/>
<path d="M0 0 C4.10185954 4.22250247 5.125 7.30647222 5.125 13.1875 C1.825 13.1875 -1.475 13.1875 -4.875 13.1875 C-5.349375 12.053125 -5.82375 10.91875 -6.3125 9.75 C-7.51122083 6.43009834 -7.51122083 6.43009834 -8.875 5.1875 C-10.6622057 5.03614056 -12.45661876 4.96574222 -14.25 4.9375 C-15.22710938 4.91171875 -16.20421875 4.8859375 -17.2109375 4.859375 C-19.87228819 4.97378507 -19.87228819 4.97378507 -21.6640625 6.453125 C-24.72756668 10.84085356 -24.09373623 16.43524197 -24.125 21.5625 C-24.145625 22.40039062 -24.16625 23.23828125 -24.1875 24.1015625 C-24.21965738 29.21458589 -23.76041277 32.77533969 -20.875 37.1875 C-17.73158007 38.75920996 -14.31728549 38.41925783 -10.875 38.1875 C-9.39 37.6925 -9.39 37.6925 -7.875 37.1875 C-6.15932339 33.68455129 -6.15932339 33.68455129 -4.875 30.1875 C-1.575 30.1875 1.725 30.1875 5.125 30.1875 C4.83556044 35.01149262 4.07488381 38.24860011 0.68359375 41.83203125 C-5.20887674 46.95656072 -11.01885314 47.91638061 -18.75 47.62109375 C-23.45564794 46.9681851 -26.6036199 45.6676916 -29.875 42.1875 C-35.84613981 33.05868976 -36.73375841 23.92198018 -35.875 13.1875 C-34.98628351 9.8451532 -33.70445962 7.1122282 -31.875 4.1875 C-31.524375 3.60226562 -31.17375 3.01703125 -30.8125 2.4140625 C-23.55299044 -7.92065597 -9.39217424 -5.92115333 0 0 Z " fill="#484F68" transform="translate(1146.875,285.8125)"/>
<path d="M0 0 C2.97 0 5.94 0 9 0 C9 6.27 9 12.54 9 19 C10.98 17.68 12.96 16.36 15 15 C18.13971704 14.1818673 20.84217798 14.26116816 24 15 C27.92069851 17.32905554 30.54733586 19.64200759 32 24 C32.08358958 26.21089945 32.10731764 28.42426078 32.09765625 30.63671875 C32.09443359 31.93544922 32.09121094 33.23417969 32.08789062 34.57226562 C32.07953531 35.94401108 32.07107037 37.31575587 32.0625 38.6875 C32.05748335 40.07096195 32.05292073 41.45442563 32.04882812 42.83789062 C32.03702529 46.22530395 32.02056019 49.61263033 32 53 C28.7 53 25.4 53 22 53 C21.505 39.14 21.505 39.14 21 25 C18.22899606 23.61449803 16.0665294 23.8122533 13 24 C12.01 24.66 11.02 25.32 10 26 C9.48895078 28.80810144 9.48895078 28.80810144 9.48828125 32.1015625 C9.45283203 33.31328125 9.41738281 34.525 9.38085938 35.7734375 C9.34702148 37.67996094 9.34702148 37.67996094 9.3125 39.625 C9.27833984 40.90375 9.24417969 42.1825 9.20898438 43.5 C9.12627521 46.66657932 9.05719915 49.83287364 9 53 C5.7 53 2.4 53 -1 53 C-1.02464071 45.61271409 -1.0428316 38.22545188 -1.05493164 30.83813477 C-1.05997363 28.32283105 -1.06680703 25.80753028 -1.07543945 23.29223633 C-1.08751094 19.68570225 -1.09322949 16.07920677 -1.09765625 12.47265625 C-1.10281754 11.34038101 -1.10797882 10.20810577 -1.11329651 9.04151917 C-1.11337204 8.00051559 -1.11344757 6.95951202 -1.11352539 5.88696289 C-1.115746 4.96540909 -1.11796661 4.04385529 -1.12025452 3.09437561 C-1 1 -1 1 0 0 Z " fill="#484F68" transform="translate(841,146)"/>
<path d="M0 0 C3.5 1.8125 3.5 1.8125 6 4 C6.8971875 4.7115625 6.8971875 4.7115625 7.8125 5.4375 C10.53762043 9.02318478 10.11890733 13.86181115 10.09765625 18.17578125 C10.09443359 19.33271484 10.09121094 20.48964844 10.08789062 21.68164062 C10.07532227 23.47891602 10.07532227 23.47891602 10.0625 25.3125 C10.05798828 26.53001953 10.05347656 27.74753906 10.04882812 29.00195312 C10.03706578 32.00135226 10.02062826 35.00065089 10 38 C8.56260487 38.02712066 7.12506137 38.04645067 5.6875 38.0625 C4.88699219 38.07410156 4.08648438 38.08570313 3.26171875 38.09765625 C1 38 1 38 -2 37 C-2.556875 37.309375 -3.11375 37.61875 -3.6875 37.9375 C-7.09538693 39.50328589 -10.3541329 39.58193648 -14 39 C-17.75212276 36.98497111 -19.63644095 35.54533858 -22 32 C-22.1953125 29.51953125 -22.1953125 29.51953125 -22.125 26.8125 C-22.10695313 25.91144531 -22.08890625 25.01039063 -22.0703125 24.08203125 C-22.04710937 23.39496094 -22.02390625 22.70789063 -22 22 C-21.34 22 -20.68 22 -20 22 C-19.835 21.401875 -19.67 20.80375 -19.5 20.1875 C-17.16082545 16.77620379 -13.88316834 15.86221665 -10 15 C-6.64775687 14.77619968 -3.35308339 14.81448104 0 15 C-0.66 13.02 -1.32 11.04 -2 9 C-3.27875 8.938125 -4.5575 8.87625 -5.875 8.8125 C-6.59429688 8.77769531 -7.31359375 8.74289063 -8.0546875 8.70703125 C-9.01761719 8.85205078 -9.01761719 8.85205078 -10 9 C-10.99 10.485 -10.99 10.485 -12 12 C-14.1640625 12.29296875 -14.1640625 12.29296875 -16.625 12.1875 C-17.44226563 12.16042969 -18.25953125 12.13335937 -19.1015625 12.10546875 C-19.72804688 12.07066406 -20.35453125 12.03585938 -21 12 C-20.68936785 8.58304635 -20.38121598 6.49013483 -18.25 3.75 C-12.72854443 -0.54446545 -6.75534516 -0.82333869 0 0 Z " fill="#4A5169" transform="translate(945,161)"/>
<path d="M0 0 C2.79656139 2.35499907 3.83771178 3.51313533 5 7 C5.15070797 9.13661258 5.2485966 11.27712124 5.31640625 13.41796875 C5.35830078 14.67158203 5.40019531 15.92519531 5.44335938 17.21679688 C5.48267578 18.52712891 5.52199219 19.83746094 5.5625 21.1875 C5.60570992 22.52279978 5.649325 23.85808652 5.69335938 25.19335938 C5.79956502 28.46213297 5.90160997 31.73098333 6 35 C2.7 35 -0.6 35 -4 35 C-4 34.34 -4 33.68 -4 33 C-5.010625 33.495 -6.02125 33.99 -7.0625 34.5 C-10.84060832 36.10283383 -13.8717825 36.45869083 -18 36 C-21.18459646 34.48007896 -23.73579966 32.71704041 -26 30 C-27.17664871 26.47005387 -27.19850603 23.70544587 -27 20 C-26.01 18.515 -26.01 18.515 -25 17 C-24.34 17 -23.68 17 -23 17 C-23 16.34 -23 15.68 -23 15 C-16.75690073 12.22528921 -11.80203375 11.62365797 -5 12 C-5.66 10.02 -6.32 8.04 -7 6 C-9.80045046 5.14349347 -9.80045046 5.14349347 -13 5 C-13.598125 5.639375 -14.19625 6.27875 -14.8125 6.9375 C-17.44115157 9.41594291 -18.24990184 9.27730186 -21.75 9.25 C-23.16767057 9.18597617 -24.58506449 9.10884119 -26 9 C-25.74220026 5.21893711 -25.47578037 3.47578037 -22.75 0.75 C-14.9880629 -4.18941452 -8.11057711 -4.36723383 0 0 Z " fill="#474E67" transform="translate(774,164)"/>
<path d="M0 0 C3.30460168 2.56275232 4.68312801 4.04938402 6 8 C6.81944056 16.82577783 6.05142033 24.72348175 0.52734375 31.91796875 C-3.36206372 35.78898659 -7.13288234 36.94467325 -12.56640625 37.16796875 C-16.43581294 36.90089895 -18.667874 36.04007714 -22 34 C-26.3750846 28.22817477 -25.6768315 21.92214033 -25 15 C-23.39437304 8.3863461 -19.81401862 3.57001143 -14 0 C-9.40017788 -1.59912016 -4.67441235 -1.11943856 0 0 Z " fill="#4494B7" transform="translate(1027,379)"/>
<path d="M0 0 C3.67304204 1.35322601 6.60723454 2.8516244 9 6 C10.1397072 9.47482723 10.20068133 12.87855601 10.31640625 16.515625 C10.35830078 17.76601562 10.40019531 19.01640625 10.44335938 20.3046875 C10.48267578 21.60664063 10.52199219 22.90859375 10.5625 24.25 C10.60568359 25.56742188 10.64886719 26.88484375 10.69335938 28.2421875 C10.79941917 31.49468788 10.90148024 34.74726392 11 38 C6.66666667 38 2.33333333 38 -2 38 C-3.60458922 38.24727338 -5.20873462 38.49743852 -6.8125 38.75 C-12.25109115 39.31150646 -14.69251086 38.34050178 -19 35 C-21.84057809 31.80434964 -22 30.3252957 -22 26 C-21.25923764 21.73256468 -19.4467615 19.66340662 -16 17 C-12.25638039 15.17569806 -9.33294463 14.77510977 -5.1875 14.875 C-3.72376953 14.90207031 -3.72376953 14.90207031 -2.23046875 14.9296875 C-1.49441406 14.95289063 -0.75835938 14.97609375 0 15 C0 13.02 0 11.04 0 9 C-1.45817797 8.83197949 -2.9165484 8.66562857 -4.375 8.5 C-5.18710937 8.4071875 -5.99921875 8.314375 -6.8359375 8.21875 C-8.96912825 7.96647649 -8.96912825 7.96647649 -11 8 C-11 8.99 -11 9.98 -11 11 C-14.3 11 -17.6 11 -21 11 C-20.84817368 8.34303932 -20.52675976 6.55765476 -18.66796875 4.58984375 C-12.50855053 -0.55049797 -7.84678195 -0.58466218 0 0 Z " fill="#484F68" transform="translate(825,228)"/>
<path d="M0 0 C4.6423686 2.16110262 6.74805114 4.47106738 9 9 C9.43237305 12.22973633 9.43237305 12.22973633 9.51171875 15.83203125 C9.54716797 17.12431641 9.58261719 18.41660156 9.61914062 19.74804688 C9.64223681 21.10285934 9.66501935 22.45767718 9.6875 23.8125 C9.72069761 25.18688117 9.75518953 26.56123171 9.79101562 27.93554688 C9.87341264 31.29028234 9.94259395 34.64475904 10 38 C8.58344207 38.0272415 7.16672955 38.04650467 5.75 38.0625 C4.96109375 38.07410156 4.1721875 38.08570313 3.359375 38.09765625 C1 38 1 38 -1.15625 37.43359375 C-3.11100425 36.77784889 -3.11100425 36.77784889 -5.25 38 C-9.02546596 39.37289671 -12.21830089 39.12269192 -16 38 C-19.15105858 36.42447071 -21.47945365 34.52467719 -22.66015625 31.06640625 C-23.34532725 26.90025152 -23.27807737 23.56568632 -21 20 C-16.02970353 16.1929644 -12.5059492 14.86463589 -6.3125 14.9375 C-5.31863281 14.94652344 -4.32476563 14.95554688 -3.30078125 14.96484375 C-2.16189453 14.98224609 -2.16189453 14.98224609 -1 15 C-1.66 12.69 -2.32 10.38 -3 8 C-5.87450983 7.74951364 -5.87450983 7.74951364 -9 8 C-9.45375 8.495 -9.9075 8.99 -10.375 9.5 C-12.64462586 11.59503926 -14.15798349 11.30553311 -17.1875 11.1875 C-18.08855469 11.16042969 -18.98960937 11.13335937 -19.91796875 11.10546875 C-20.60503906 11.07066406 -21.29210937 11.03585938 -22 11 C-22 8.20335631 -21.40112755 6.48112771 -19.609375 4.33203125 C-13.69979837 -0.89471615 -7.60938619 -1.15924243 0 0 Z " fill="#4A5069" transform="translate(741,228)"/>
<path d="M0 0 C0.86625 0.721875 1.7325 1.44375 2.625 2.1875 C3.2025 2.661875 3.78 3.13625 4.375 3.625 C8.29378957 8.52348696 8.10335042 14.18030873 7.625 20.1875 C6.625 21.1875 6.625 21.1875 4.49194336 21.30102539 C3.57550049 21.29578857 2.65905762 21.29055176 1.71484375 21.28515625 C0.72548828 21.28193359 -0.26386719 21.27871094 -1.28320312 21.27539062 C-2.32412109 21.26701172 -3.36503906 21.25863281 -4.4375 21.25 C-5.48228516 21.24548828 -6.52707031 21.24097656 -7.60351562 21.23632812 C-10.1940666 21.22449913 -12.78450559 21.20801689 -15.375 21.1875 C-14.30098892 24.10267292 -13.59689824 25.96560176 -11.375 28.1875 C-6.50609945 28.50162262 -3.67232576 28.4896388 0.625 26.1875 C2.875 26.5625 2.875 26.5625 4.625 27.1875 C4.955 28.8375 5.285 30.4875 5.625 32.1875 C-0.39354886 36.42784124 -3.98666553 37.68840403 -11.375 37.1875 C-17.96318984 35.02929988 -21.76332502 32.02182497 -25.1875 26 C-27.13567164 19.74534368 -27.48804928 13.94682477 -24.75 7.875 C-22.36498625 3.69699719 -19.18235005 0.08126859 -14.4609375 -1.421875 C-9.1459966 -2.41718229 -4.83093835 -2.59439282 0 0 Z " fill="#4A5169" transform="translate(1020.375,162.8125)"/>
<path d="M0 0 C1.11246094 -0.01675781 2.22492187 -0.03351563 3.37109375 -0.05078125 C8.16855027 0.49531845 10.67005883 2.29610866 13.8125 5.875 C17.60703615 11.16024678 16.63082061 15.89036288 16.5625 22.3125 C8.9725 22.3125 1.3825 22.3125 -6.4375 22.3125 C-4.89707252 27.11554035 -4.89707252 27.11554035 -2.4375 29.3125 C-0.33160923 29.63113689 -0.33160923 29.63113689 2 29.5625 C2.78246094 29.56765625 3.56492187 29.5728125 4.37109375 29.578125 C6.85294107 29.44426831 6.85294107 29.44426831 9.5625 27.3125 C11.625 27.4375 11.625 27.4375 13.5625 28.3125 C14.8125 30.375 14.8125 30.375 15.5625 32.3125 C10.98083564 36.35514503 7.21582678 38.07128847 1.125 38.625 C-5.69783585 38.02650563 -9.97680743 35.41043437 -14.4375 30.3125 C-18.0561556 24.88451659 -17.39465043 16.68724701 -16.4375 10.3125 C-14.67268083 6.16402896 -12.38861668 3.58220716 -8.63671875 1.140625 C-5.69100587 0.03140452 -3.14201899 0.01089718 0 0 Z " fill="#484F68" transform="translate(723.4375,161.6875)"/>
<path d="M0 0 C4.03654111 1.9828623 6.6500056 4.16579861 9 8 C10 11 10 11 10 22 C2.41 22 -5.18 22 -13 22 C-10.5797509 27.63106761 -10.5797509 27.63106761 -8 30 C-2.5030381 30.57803609 -2.5030381 30.57803609 2.3125 28.4375 C2.869375 27.963125 3.42625 27.48875 4 27 C4.99 27.33 5.98 27.66 7 28 C8.1875 30.5625 8.1875 30.5625 9 33 C4.58066509 37.65821788 1.15888326 38.84155143 -5.25 39.12890625 C-10.05191013 38.90381671 -13.96554529 37.90470633 -17.53125 34.56640625 C-22.79341089 28.43231754 -23.44720415 24.43238375 -23.30859375 16.5234375 C-22.76303544 10.29440462 -20.68277305 6.13320555 -16 2 C-11.10695581 -1.11759835 -5.56968549 -0.8431885 0 0 Z " fill="#484F68" transform="translate(1019,228)"/>
<path d="M0 0 C3.5625 1.8125 3.5625 1.8125 6 4 C6.5775 4.495 7.155 4.99 7.75 5.5 C12.37530506 11.05036608 11 14.00578114 11 22 C3.41 22.33 -4.18 22.66 -12 23 C-10.52360997 28.06008639 -10.52360997 28.06008639 -7 30 C-1.74629229 30.4956328 1.46370773 29.6553906 6 27 C7.5625 28.25 7.5625 28.25 9 30 C9.0625 31.9375 9.0625 31.9375 8 34 C4.23678481 37.66150668 1.3538741 38.31490711 -3.875 38.5 C-9.33975255 38.2965973 -13.64941249 37.41756995 -18 34 C-22.53664779 28.41643349 -23.3766507 23.6122477 -23.2734375 16.59375 C-22.67168381 10.88568644 -19.91377639 6.59558996 -16 2.5 C-11.23827516 -1.26412806 -5.76475712 -0.95278625 0 0 Z " fill="#464D66" transform="translate(911,228)"/>
<path d="M0 0 C3.3 0 6.6 0 10 0 C10.02505615 0.84296631 10.0501123 1.68593262 10.07592773 2.55444336 C10.17088155 5.67241674 10.27012448 8.79021503 10.37231445 11.90795898 C10.41571223 13.25914147 10.4573837 14.61038053 10.49731445 15.96166992 C10.55489952 17.90036701 10.61914298 19.83886276 10.68359375 21.77734375 C10.72025146 22.94515381 10.75690918 24.11296387 10.79467773 25.31616211 C10.70076188 27.91779795 10.70076188 27.91779795 12 29 C16.01657143 29.22918242 16.01657143 29.22918242 20 29 C22.71663793 26.28336207 22.30753121 24.69805347 22.4140625 20.8984375 C22.45273437 19.68671875 22.49140625 18.475 22.53125 17.2265625 C22.57765625 15.32003906 22.57765625 15.32003906 22.625 13.375 C22.66367187 12.09625 22.70234375 10.8175 22.7421875 9.5 C22.83671049 6.33347983 22.92226357 3.1669696 23 0 C26.3 0 29.6 0 33 0 C33 12.21 33 24.42 33 37 C29.7 37 26.4 37 23 37 C23 36.34 23 35.68 23 35 C22.401875 35.495 21.80375 35.99 21.1875 36.5 C16.47923936 38.71565207 12.10158083 39.07558952 7 38 C3.74635416 35.57398058 1.79700992 32.59401984 0 29 C-0.08559118 26.82175039 -0.10713412 24.64084745 -0.09765625 22.4609375 C-0.09443359 21.15898437 -0.09121094 19.85703125 -0.08789062 18.515625 C-0.07953466 17.13541601 -0.07106971 15.75520768 -0.0625 14.375 C-0.05748501 12.98698074 -0.0529221 11.59895978 -0.04882812 10.2109375 C-0.03700976 6.80724868 -0.02053434 3.40364561 0 0 Z " fill="#464D66" transform="translate(766,295)"/>
<path d="M0 0 C3.26397351 1.29198951 4.519419 2.06171779 6.11279297 5.17260742 C7.18602106 8.59282054 7.22581316 11.46695343 7.1953125 15.05078125 C7.1924826 15.70958786 7.18965271 16.36839447 7.18673706 17.04716492 C7.17560924 19.13580062 7.15051948 21.22399556 7.125 23.3125 C7.11496059 24.73501982 7.10583642 26.1575464 7.09765625 27.58007812 C7.07569447 31.05352681 7.04121646 34.52672033 7 38 C5.52093108 38.02689216 4.04172517 38.04634621 2.5625 38.0625 C1.32693359 38.07990234 1.32693359 38.07990234 0.06640625 38.09765625 C-2 38 -2 38 -3 37 C-3.08767112 34.92737924 -3.10695873 32.85179706 -3.09765625 30.77734375 C-3.09443359 29.51728516 -3.09121094 28.25722656 -3.08789062 26.95898438 C-3.07953403 25.61848891 -3.07106907 24.27799412 -3.0625 22.9375 C-3.0574866 21.59310058 -3.05292342 20.2486994 -3.04882812 18.90429688 C-3.03699488 15.60282059 -3.02050971 12.30143197 -3 9 C-4.8871875 8.9690625 -4.8871875 8.9690625 -6.8125 8.9375 C-7.52019531 8.92589844 -8.22789063 8.91429687 -8.95703125 8.90234375 C-11.20305461 8.91736783 -11.20305461 8.91736783 -14 10 C-14.33 19.24 -14.66 28.48 -15 38 C-18.3 38 -21.6 38 -25 38 C-25 25.79 -25 13.58 -25 1 C-21.7 1 -18.4 1 -15 1 C-15 1.66 -15 2.32 -15 3 C-14.38125 2.505 -13.7625 2.01 -13.125 1.5 C-8.71561574 -0.61650445 -4.81234166 -0.5777976 0 0 Z " fill="#474E67" transform="translate(1064,228)"/>
<path d="M0 0 C2.05078125 0.03255208 4.1015625 0.06510417 6.15234375 0.09765625 C6.48234375 1.08765625 6.81234375 2.07765625 7.15234375 3.09765625 C7.95671875 2.60265625 8.76109375 2.10765625 9.58984375 1.59765625 C13.96752413 -0.24557759 17.46687822 -0.55070153 22.15234375 0.09765625 C25.78701454 1.72165809 26.92643071 2.75878669 29.15234375 6.09765625 C29.32346377 8.56822448 29.38487499 10.92269546 29.34765625 13.390625 C29.34482635 14.09665359 29.34199646 14.80268219 29.33908081 15.53010559 C29.32789839 17.78196258 29.30279795 20.03341977 29.27734375 22.28515625 C29.26731142 23.81314529 29.25818601 25.34114058 29.25 26.86914062 C29.22796547 30.61213288 29.19344942 34.35482681 29.15234375 38.09765625 C26.18234375 38.09765625 23.21234375 38.09765625 20.15234375 38.09765625 C20.1272876 37.26516357 20.10223145 36.4326709 20.07641602 35.57495117 C19.98121681 32.48302792 19.88198703 29.39126773 19.7800293 26.29956055 C19.71547369 24.30462306 19.65556545 22.30953696 19.59570312 20.31445312 C19.55380859 19.06083984 19.51191406 17.80722656 19.46875 16.515625 C19.43209229 15.35828857 19.39543457 14.20095215 19.35766602 13.00854492 C19.26905866 10.03331165 19.26905866 10.03331165 18.15234375 7.09765625 C12.84365885 7.6794047 12.84365885 7.6794047 8.15234375 10.09765625 C7.64088177 13.00379059 7.64088177 13.00379059 7.640625 16.41796875 C7.60517578 17.67480469 7.56972656 18.93164062 7.53320312 20.2265625 C7.49936523 22.20462891 7.49936523 22.20462891 7.46484375 24.22265625 C7.43167846 25.56253384 7.39718953 26.90237936 7.36132812 28.2421875 C7.27861048 31.52725955 7.20953682 34.81205657 7.15234375 38.09765625 C3.85234375 38.09765625 0.55234375 38.09765625 -2.84765625 38.09765625 C-2.87230553 32.84660183 -2.89049193 27.5955808 -2.90258789 22.34448242 C-2.90762843 20.55671604 -2.91446079 18.7689538 -2.9230957 16.98120117 C-2.93517355 14.41714457 -2.94088719 11.85314228 -2.9453125 9.2890625 C-2.95047379 8.48489395 -2.95563507 7.6807254 -2.96095276 6.85218811 C-2.9611484 4.9336391 -2.90967608 3.01520257 -2.84765625 1.09765625 C-1.84765625 0.09765625 -1.84765625 0.09765625 0 0 Z " fill="#434963" transform="translate(762.84765625,227.90234375)"/>
<path d="M0 0 C2.97 0 5.94 0 9 0 C9.33 0.99 9.66 1.98 10 3 C10.598125 2.505 11.19625 2.01 11.8125 1.5 C16.49501185 -0.70353499 20.91222924 -0.84796179 26 0 C29.125 2.4375 29.125 2.4375 31 5 C31.33 5.33 31.66 5.66 32 6 C32.08790975 8.29151417 32.10694038 10.58572524 32.09765625 12.87890625 C32.0962413 13.5655687 32.09482635 14.25223114 32.09336853 14.95970154 C32.08775479 17.16067801 32.07520007 19.36155409 32.0625 21.5625 C32.05748676 23.05143083 32.05292355 24.54036324 32.04882812 26.02929688 C32.03778093 29.68623075 32.02050713 33.34310558 32 37 C29.03 37 26.06 37 23 37 C22.98018066 36.19256348 22.96036133 35.38512695 22.93994141 34.55322266 C22.84494101 30.91014125 22.73516088 27.26765314 22.625 23.625 C22.5940625 22.35398437 22.563125 21.08296875 22.53125 19.7734375 C22.49257813 18.56171875 22.45390625 17.35 22.4140625 16.1015625 C22.3826416 14.98088379 22.3512207 13.86020508 22.31884766 12.70556641 C22.26588797 9.85289588 22.26588797 9.85289588 20 8 C16.5 7.66666667 16.5 7.66666667 13 8 C10.28336207 10.71663793 10.69246879 12.30194653 10.5859375 16.1015625 C10.52792969 17.91914063 10.52792969 17.91914063 10.46875 19.7734375 C10.4378125 21.04445313 10.406875 22.31546875 10.375 23.625 C10.31699219 25.543125 10.31699219 25.543125 10.2578125 27.5 C10.16328951 30.66652017 10.07773643 33.8330304 10 37 C6.7 37 3.4 37 0 37 C0 24.79 0 12.58 0 0 Z " fill="#434963" transform="translate(904,295)"/>
<path d="M0 0 C2.80503843 2.69185267 3.89669895 4.33383021 4.49609375 8.19921875 C4.34998923 16.89730762 4.08586873 25.33368646 -1.375 32.5 C-4.02208129 35.0210298 -5.45079005 36.23945501 -9 37 C-15.15127345 36.68183068 -15.15127345 36.68183068 -17.62890625 34.69140625 C-20.85811996 30.70778934 -21.08198994 25.767099 -20.8515625 20.80078125 C-19.81435043 12.37587943 -17.45674374 5.71364024 -11 0 C-7.25347994 -1.24884002 -3.71101175 -1.35334402 0 0 Z " fill="#4494B6" transform="translate(691,379)"/>
<path d="M0 0 C2.80503843 2.69185267 3.89669895 4.33383021 4.49609375 8.19921875 C4.34998923 16.89730762 4.08586873 25.33368646 -1.375 32.5 C-4.02208129 35.0210298 -5.45079005 36.23945501 -9 37 C-15.15127345 36.68183068 -15.15127345 36.68183068 -17.62890625 34.69140625 C-20.85811996 30.70778934 -21.08198994 25.767099 -20.8515625 20.80078125 C-19.81435043 12.37587943 -17.45674374 5.71364024 -11 0 C-7.25347994 -1.24884002 -3.71101175 -1.35334402 0 0 Z " fill="#4494B6" transform="translate(662,379)"/>
<path d="M0 0 C4.14581887 -0.02886751 8.29161216 -0.04675327 12.4375 -0.0625 C14.21350586 -0.07506836 14.21350586 -0.07506836 16.02539062 -0.08789062 C17.15009766 -0.09111328 18.27480469 -0.09433594 19.43359375 -0.09765625 C20.47572021 -0.10289307 21.51784668 -0.10812988 22.59155273 -0.11352539 C25 0 25 0 26 1 C26.08748207 2.92667507 26.10697334 4.85651861 26.09765625 6.78515625 C26.09443359 7.95498047 26.09121094 9.12480469 26.08789062 10.33007812 C26.07951172 11.56177734 26.07113281 12.79347656 26.0625 14.0625 C26.05798828 15.29806641 26.05347656 16.53363281 26.04882812 17.80664062 C26.03699608 20.87114117 26.02051173 23.93554721 26 27 C20.90416487 27.70074741 15.96618767 28.15890018 10.8125 28.1875 C9.64332031 28.20167969 8.47414063 28.21585938 7.26953125 28.23046875 C4.04322794 28.00304713 1.93858342 27.26162515 -1 26 C-1.02892857 22.04168191 -1.04677427 18.08339083 -1.0625 14.125 C-1.07087891 12.99707031 -1.07925781 11.86914062 -1.08789062 10.70703125 C-1.09111328 9.63066406 -1.09433594 8.55429688 -1.09765625 7.4453125 C-1.10289307 6.45031738 -1.10812988 5.45532227 -1.11352539 4.43017578 C-1 2 -1 2 0 0 Z " fill="#4795B7" transform="translate(392,86)"/>
<path d="M0 0 C8.91 0 17.82 0 27 0 C27 8.91 27 17.82 27 27 C18.09 27 9.18 27 0 27 C0 18.09 0 9.18 0 0 Z " fill="#264F5E" transform="translate(363,50)"/>
<path d="M0 0 C3.86822962 1.39532568 5.71633148 3.57449722 8 7 C8 8.32 8 9.64 8 11 C5.03 11 2.06 11 -1 11 C-1.33 9.68 -1.66 8.36 -2 7 C-6.455 7.495 -6.455 7.495 -11 8 C-11 9.65 -11 11.3 -11 13 C-10.18015625 13.19335938 -9.3603125 13.38671875 -8.515625 13.5859375 C-7.43796875 13.84632813 -6.3603125 14.10671875 -5.25 14.375 C-4.18265625 14.63023437 -3.1153125 14.88546875 -2.015625 15.1484375 C3.13872172 16.60393955 6.26323838 18.23600756 9 23 C9.43343578 26.915133 9.18158501 30.46791424 6.72265625 33.65625 C1.47794269 38.24704253 -3.63657968 38.30475716 -10.30859375 38.20703125 C-13.93428853 37.92813165 -16.09038292 37.19995438 -19 35 C-21.02130721 32.26268115 -23 29.50543978 -23 26 C-19.7 26 -16.4 26 -13 26 C-12.67 26.99 -12.34 27.98 -12 29 C-9.59454362 30.20272819 -8.05003047 30.10071472 -5.375 30.0625 C-4.55773437 30.05347656 -3.74046875 30.04445313 -2.8984375 30.03515625 C-2.27195312 30.02355469 -1.64546875 30.01195312 -1 30 C-1.495 27.525 -1.495 27.525 -2 25 C-2.88042969 24.75765625 -3.76085937 24.5153125 -4.66796875 24.265625 C-6.41013672 23.76289063 -6.41013672 23.76289063 -8.1875 23.25 C-9.33605469 22.92515625 -10.48460937 22.6003125 -11.66796875 22.265625 C-15.76851804 20.70808928 -18.7166178 18.69173108 -21.375 15.1875 C-22.3483907 11.78063256 -21.89660101 9.40708385 -21 6 C-14.91956394 -1.17179637 -9.01798977 -0.75833096 0 0 Z " fill="#495069" transform="translate(968,295)"/>
<path d="M0 0 C3.3 0 6.6 0 10 0 C10 13.86 10 27.72 10 42 C17.26 42 24.52 42 32 42 C32 44.64 32 47.28 32 50 C21.44 50 10.88 50 0 50 C0 33.5 0 17 0 0 Z " fill="#464C66" transform="translate(1072,282)"/>
<path d="M0 0 C3.3 0 6.6 0 10 0 C10 13.86 10 27.72 10 42 C17.26 42 24.52 42 32 42 C32 44.64 32 47.28 32 50 C21.44 50 10.88 50 0 50 C0 33.5 0 17 0 0 Z " fill="#464C66" transform="translate(1031,282)"/>
<path d="M0 0 C3.4984521 3.40638757 4.66809891 6.13211732 5 11 C4 12 4 12 2.15234375 12.09765625 C0.1015625 12.06510417 -1.94921875 12.03255208 -4 12 C-4.66 10.02 -5.32 8.04 -6 6 C-7.27875 5.979375 -8.5575 5.95875 -9.875 5.9375 C-10.59429688 5.92589844 -11.31359375 5.91429687 -12.0546875 5.90234375 C-14.08185404 5.87350758 -14.08185404 5.87350758 -16 7 C-17.26546985 10.41757462 -17.16680554 13.89088538 -17.1875 17.5 C-17.20876953 19.18609375 -17.20876953 19.18609375 -17.23046875 20.90625 C-17.00970218 23.86976056 -16.5460647 25.5067415 -15 28 C-10.95220827 27.74602085 -10.95220827 27.74602085 -7 27 C-6.505 26.319375 -6.01 25.63875 -5.5 24.9375 C-4 23 -4 23 -2.05078125 22.73828125 C-0.031996 22.74885081 1.9855135 22.86790252 4 23 C3.88027155 29.106151 3.88027155 29.106151 1.48046875 31.54296875 C-3.62637716 35.20914655 -7.61646221 36.42556919 -14 36 C-19.69876097 34.23141901 -22.62965927 31.91106791 -26 27 C-28.8525979 20.88729022 -28.9213205 14.21705632 -26.9375 7.8125 C-25.09950231 3.43631504 -22.00067636 0.48644186 -18 -2 C-11.51051724 -4.0751253 -5.94001253 -3.25019553 0 0 Z " fill="#495068" transform="translate(911,164)"/>
<path d="M0 0 C1.32 0 2.64 0 4 0 C4.33 1.32 4.66 2.64 5 4 C5.350625 3.525625 5.70125 3.05125 6.0625 2.5625 C9.01058287 0.18501381 11.2544684 0 15 0 C17.9375 1.75 17.9375 1.75 20 5 C21.11866871 11.82920613 20.11296145 17.8814206 17 24 C14.2067497 27.02602116 12.42794448 27.88738303 8.4375 28.9375 C4.56116419 29.00797883 3.84412086 28.3960318 1 26 C0.79503906 26.92683594 0.59007812 27.85367187 0.37890625 28.80859375 C0.10949219 30.00613281 -0.15992188 31.20367187 -0.4375 32.4375 C-0.70433594 33.63246094 -0.97117187 34.82742188 -1.24609375 36.05859375 C-2 39 -2 39 -3 40 C-4.66617115 40.04063832 -6.33388095 40.042721 -8 40 C-7.39507454 34.662117 -6.54899929 29.46258039 -5.37109375 24.21875 C-5.21713638 23.51979614 -5.06317902 22.82084229 -4.90455627 22.10070801 C-4.41893635 19.89970371 -3.92831403 17.69985119 -3.4375 15.5 C-3.10448412 13.99486544 -2.77179888 12.48965768 -2.43945312 10.984375 C-1.63011625 7.32206064 -0.81629559 3.66076933 0 0 Z " fill="#4393B6" transform="translate(833,387)"/>
<path d="M0 0 C1.98 0 3.96 0 6 0 C3.36 12.87 0.72 25.74 -2 39 C-3.65 39 -5.3 39 -7 39 C-7 38.01 -7 37.02 -7 36 C-7.350625 36.474375 -7.70125 36.94875 -8.0625 37.4375 C-10.98282035 39.79259706 -13.29462195 39.93611417 -17 40 C-19.69140625 38.39453125 -19.69140625 38.39453125 -22 36 C-23.43326696 29.26987688 -22.56947745 22.55486848 -19.16796875 16.5859375 C-16.01524629 12.30498326 -16.01524629 12.30498326 -13.0625 11.41796875 C-12.381875 11.34191406 -11.70125 11.26585937 -11 11.1875 C-10.319375 11.09855469 -9.63875 11.00960938 -8.9375 10.91796875 C-7 11 -7 11 -4 13 C-4 13.66 -4 14.32 -4 15 C-3.34 15 -2.68 15 -2 15 C-1.90912109 14.00419922 -1.90912109 14.00419922 -1.81640625 12.98828125 C-0.98418278 4.21792619 -0.98418278 4.21792619 0 0 Z " fill="#4393B6" transform="translate(1158,376)"/>
<path d="M0 0 C1.98 0 3.96 0 6 0 C3.36 12.87 0.72 25.74 -2 39 C-3.65 39 -5.3 39 -7 39 C-7 38.01 -7 37.02 -7 36 C-7.350625 36.474375 -7.70125 36.94875 -8.0625 37.4375 C-10.98282035 39.79259706 -13.29462195 39.93611417 -17 40 C-19.69140625 38.39453125 -19.69140625 38.39453125 -22 36 C-23.43326696 29.26987688 -22.56947745 22.55486848 -19.16796875 16.5859375 C-16.01524629 12.30498326 -16.01524629 12.30498326 -13.0625 11.41796875 C-12.381875 11.34191406 -11.70125 11.26585937 -11 11.1875 C-10.319375 11.09855469 -9.63875 11.00960938 -8.9375 10.91796875 C-7 11 -7 11 -4 13 C-4 13.66 -4 14.32 -4 15 C-3.34 15 -2.68 15 -2 15 C-1.90912109 14.00419922 -1.90912109 14.00419922 -1.81640625 12.98828125 C-0.98418278 4.21792619 -0.98418278 4.21792619 0 0 Z " fill="#4393B6" transform="translate(551,376)"/>
<path d="M0 0 C6.93359375 -0.09765625 6.93359375 -0.09765625 9 0 C10 1 10 1 10.09765625 2.84765625 C10.06510417 4.8984375 10.03255208 6.94921875 10 9 C11.98 9 13.96 9 16 9 C16 11.31 16 13.62 16 16 C14.02 16 12.04 16 10 16 C10 23.59 10 31.18 10 39 C11.98 39 13.96 39 16 39 C16 41.64 16 44.28 16 47 C14.27402225 47.16322732 12.54351663 47.27895945 10.8125 47.375 C9.36810547 47.47941406 9.36810547 47.47941406 7.89453125 47.5859375 C4.60223117 46.91947999 2.94272646 45.84085427 0.9309082 43.13037109 C-1.12635712 38.42234665 -0.49710933 33.15773446 -0.3125 28.125 C-0.27866211 26.37703125 -0.27866211 26.37703125 -0.24414062 24.59375 C-0.18541297 21.72784055 -0.10332875 18.86459078 0 16 C-1.98 16 -3.96 16 -6 16 C-6 13.69 -6 11.38 -6 9 C-4.02 9 -2.04 9 0 9 C0 6.03 0 3.06 0 0 Z " fill="#4A5069" transform="translate(813,286)"/>
<path d="M0 0 C6.93359375 -0.09765625 6.93359375 -0.09765625 9 0 C10 1 10 1 10.09765625 2.84765625 C10.06510417 4.8984375 10.03255208 6.94921875 10 9 C11.98 9 13.96 9 16 9 C16 11.31 16 13.62 16 16 C14.02 16 12.04 16 10 16 C10 23.59 10 31.18 10 39 C11.98 39 13.96 39 16 39 C16 41.31 16 43.62 16 46 C12.79826746 47.60086627 9.47422941 47.49917089 6 47 C3.1899654 45.20636089 1.49059532 43.98119065 0 41 C-0.084915 39.1136088 -0.107193 37.22421485 -0.09765625 35.3359375 C-0.09443359 34.21445313 -0.09121094 33.09296875 -0.08789062 31.9375 C-0.07951172 30.761875 -0.07113281 29.58625 -0.0625 28.375 C-0.05798828 27.19164062 -0.05347656 26.00828125 -0.04882812 24.7890625 C-0.03701467 21.85932493 -0.02054258 18.92968728 0 16 C-1.98 16 -3.96 16 -6 16 C-6 13.69 -6 11.38 -6 9 C-4.02 9 -2.04 9 0 9 C0 6.03 0 3.06 0 0 Z " fill="#4A5069" transform="translate(816,153)"/>
<path d="M0 0 C0.721875 0.00257813 1.44375 0.00515625 2.1875 0.0078125 C2.909375 0.00523437 3.63125 0.00265625 4.375 0 C6.1875 0.1328125 6.1875 0.1328125 7.1875 1.1328125 C7.64209858 3.78744371 7.88993238 6.45470388 8.1875 9.1328125 C11.1575 9.6278125 11.1575 9.6278125 14.1875 10.1328125 C14.1875 12.1128125 14.1875 14.0928125 14.1875 16.1328125 C12.2075 16.4628125 10.2275 16.7928125 8.1875 17.1328125 C8.1875 24.7228125 8.1875 32.3128125 8.1875 40.1328125 C10.1675 40.1328125 12.1475 40.1328125 14.1875 40.1328125 C14.1875 42.4428125 14.1875 44.7528125 14.1875 47.1328125 C6.22228327 48.57314581 6.22228327 48.57314581 2.25 46.8828125 C-0.4005525 44.63385886 -1.70893576 42.98884311 -2.13134766 39.49731445 C-2.16276855 38.46566162 -2.19418945 37.43400879 -2.2265625 36.37109375 C-2.26523438 35.25283203 -2.30390625 34.13457031 -2.34375 32.98242188 C-2.3746875 31.81517578 -2.405625 30.64792969 -2.4375 29.4453125 C-2.47617188 28.26646484 -2.51484375 27.08761719 -2.5546875 25.87304688 C-2.64904391 22.95979273 -2.73463161 20.04654643 -2.8125 17.1328125 C-4.4625 16.8028125 -6.1125 16.4728125 -7.8125 16.1328125 C-7.8125 14.1528125 -7.8125 12.1728125 -7.8125 10.1328125 C-6.1625 10.1328125 -4.5125 10.1328125 -2.8125 10.1328125 C-2.82410156 9.49472656 -2.83570313 8.85664063 -2.84765625 8.19921875 C-2.85667969 7.37292969 -2.86570312 6.54664063 -2.875 5.6953125 C-2.88660156 4.87160156 -2.89820313 4.04789063 -2.91015625 3.19921875 C-2.78580037 0.56784823 -2.63135505 0.19281481 0 0 Z " fill="#484F68" transform="translate(1087.8125,218.8671875)"/>
<path d="M0 0 C2.93087207 2.25451698 3.82814288 3.48442865 5 7 C5.8120071 13.63139132 3.65848288 18.58970389 0 24 C-4.21143283 27.35000339 -7.72846584 27.22715342 -12.8515625 26.71484375 C-15.81271218 25.72958849 -17.11630957 24.47942326 -19 22 C-19.9340662 16.71921627 -19.52970733 11.56124265 -17.8125 6.5 C-13.05266063 -0.06529568 -7.86816429 -2.07808371 0 0 Z " fill="#4594B7" transform="translate(893,388)"/>
<path d="M0 0 C2.93087207 2.25451698 3.82814288 3.48442865 5 7 C5.8120071 13.63139132 3.65848288 18.58970389 0 24 C-4.21143283 27.35000339 -7.72846584 27.22715342 -12.8515625 26.71484375 C-15.81271218 25.72958849 -17.11630957 24.47942326 -19 22 C-19.9340662 16.71921627 -19.52970733 11.56124265 -17.8125 6.5 C-13.05266063 -0.06529568 -7.86816429 -2.07808371 0 0 Z " fill="#4594B7" transform="translate(488,388)"/>
<path d="M0 0 C1.32 0 2.64 0 4 0 C4.33 1.32 4.66 2.64 5 4 C5.350625 3.525625 5.70125 3.05125 6.0625 2.5625 C9.01058287 0.18501381 11.2544684 0 15 0 C17.9375 2.4375 17.9375 2.4375 20 5 C20.515625 4.360625 21.03125 3.72125 21.5625 3.0625 C24.74054585 0.37338428 26.87326713 0.07369166 31 0 C33.19140625 1.23046875 33.19140625 1.23046875 35 3 C36.97219441 10.76454492 33.71371379 20.34949199 32 28 C30.02 28 28.04 28 26 28 C26.13277344 27.24976563 26.26554688 26.49953125 26.40234375 25.7265625 C27.53493681 19.16248304 28.44195394 12.63781101 29 6 C26.6100442 5.73902702 26.6100442 5.73902702 24 6 C17.98158187 11.12680063 17.25788111 20.71860692 16 28 C14.02 28 12.04 28 10 28 C10.32484375 26.49759766 10.32484375 26.49759766 10.65625 24.96484375 C10.93786632 23.62247263 11.21909566 22.28002029 11.5 20.9375 C11.64308594 20.28072266 11.78617188 19.62394531 11.93359375 18.94726562 C12.83952455 14.56860012 13.14031146 10.49581296 13 6 C10.6704053 5.49758678 10.6704053 5.49758678 8 6 C4.35234615 10.48942012 2.98251432 14.78827526 1.75 20.375 C1.57726562 21.11105469 1.40453125 21.84710938 1.2265625 22.60546875 C0.8067975 24.40113016 0.40184581 26.20024377 0 28 C-1.65 28 -3.3 28 -5 28 C-4.58384403 18.36598935 -2.34560829 9.30606453 0 0 Z " fill="#4092B5" transform="translate(787,387)"/>
<path d="M0 0 C1.89551022 -0.05441656 3.7914792 -0.09298035 5.6875 -0.125 C6.74324219 -0.14820313 7.79898437 -0.17140625 8.88671875 -0.1953125 C12.91595336 0.05746257 15.79186444 0.91684398 18.8125 3.625 C20.52963217 7.05926435 20.54129347 10.27768053 20 14 C18.22474555 18.20455 16.06940403 20.01492486 12 22 C8.39569299 23.32157924 4.80280908 23.07313094 1 23 C0.34 27.29 -0.32 31.58 -1 36 C-2.98 36 -4.96 36 -7 36 C-4.78329505 23.97605497 -2.41905976 11.98478338 0 0 Z " fill="#4394B6" transform="translate(424,379)"/>
<path d="M0 0 C1.65 0 3.3 0 5 0 C6.58482571 3.16965142 6.37852823 6.63744541 6.5625 10.125 C6.706875 12.72375 6.85125 15.3225 7 18 C9.64 12.06 12.28 6.12 15 0 C17.31 0 19.62 0 22 0 C22.33 6.6 22.66 13.2 23 20 C25.64 13.4 28.28 6.8 31 0 C32.98 0 34.96 0 37 0 C35.20513796 6.04476527 32.50677707 11.66175847 29.875 17.375 C29.40707031 18.39722656 28.93914062 19.41945313 28.45703125 20.47265625 C27.30741708 22.98303821 26.15499936 25.49209231 25 28 C22.69 28 20.38 28 18 28 C17.67 21.07 17.34 14.14 17 7 C14.03 13.93 11.06 20.86 8 28 C5.69 28 3.38 28 1 28 C0.67 18.76 0.34 9.52 0 0 Z " fill="#4394B7" transform="translate(1039,387)"/>
<path d="M0 0 C1 1 1 1 1.1328125 2.8125 C1.13023437 3.534375 1.12765625 4.25625 1.125 5 C1.12886719 6.0828125 1.12886719 6.0828125 1.1328125 7.1875 C1 9 1 9 0 10 C-3.63 10.66 -7.26 11.32 -11 12 C-11 20.58 -11 29.16 -11 38 C-14.3 38 -17.6 38 -21 38 C-21.0246501 32.89136104 -21.04283607 27.78275641 -21.05493164 22.67407227 C-21.05997204 20.93480832 -21.0668043 19.19554864 -21.07543945 17.45629883 C-21.08751792 14.96174063 -21.09323108 12.46723827 -21.09765625 9.97265625 C-21.10281754 9.19036148 -21.10797882 8.40806671 -21.11329651 7.60206604 C-21.11349226 5.73432886 -21.06199694 3.86670796 -21 2 C-20 1 -20 1 -17.93359375 0.90234375 C-16.69802734 0.91974609 -16.69802734 0.91974609 -15.4375 0.9375 C-14.61121094 0.94652344 -13.78492188 0.95554688 -12.93359375 0.96484375 C-12.29550781 0.97644531 -11.65742187 0.98804688 -11 1 C-11 1.66 -11 2.32 -11 3 C-10.29875 2.505 -9.5975 2.01 -8.875 1.5 C-5.61189846 -0.20248776 -3.6286739 -0.32987945 0 0 Z " fill="#4D536C" transform="translate(987,161)"/>
<path d="M0 0 C2.97 0 5.94 0 9 0 C9 17.49 9 34.98 9 53 C6.03 53 3.06 53 0 53 C0 35.51 0 18.02 0 0 Z " fill="#434963" transform="translate(792,146)"/>
<path d="M0 0 C2.97 0 5.94 0 9 0 C9 17.16 9 34.32 9 52 C6.03 52 3.06 52 0 52 C0 34.84 0 17.68 0 0 Z " fill="#434963" transform="translate(745,280)"/>
<path d="M0 0 C3.17490453 2.08875298 3.86963857 3.52511192 4.875 7.1875 C5.11447003 14.49133601 3.6517801 20.22051563 -1 26 C-4.79247686 28.52831791 -7.54949712 28.61322169 -12 28 C-14.67431489 26.18836733 -14.95920359 25.12238923 -16 22 C-16.59412105 15.22702007 -15.24024676 9.9933976 -12 4 C-8.34878369 -0.14462392 -5.4402531 -0.79130954 0 0 Z " fill="#E4E5E5" transform="translate(1023,383)"/>
<path d="M0 0 C6.27 0 12.54 0 19 0 C19 1.65 19 3.3 19 5 C14.38 5 9.76 5 5 5 C4.34 8.3 3.68 11.6 3 15 C6.96 15 10.92 15 15 15 C15 16.65 15 18.3 15 20 C10.71 20 6.42 20 2 20 C1.34 23.63 0.68 27.26 0 31 C4.29 31 8.58 31 13 31 C12.67 32.65 12.34 34.3 12 36 C5.73 36 -0.54 36 -7 36 C-4.77347748 23.97677837 -2.41407089 11.98711063 0 0 Z " fill="#3F91B5" transform="translate(762,379)"/>
<path d="M0 0 C2.32749345 3.49124017 2.50299316 4.89222251 2 9 C-0.85430304 13.11019637 -4.21995855 14.01102591 -9 15 C-12.4375 15.125 -12.4375 15.125 -15 15 C-14.03223902 18.79547921 -14.03223902 18.79547921 -12 22 C-10.31391034 22.07205511 -8.62499341 22.08386068 -6.9375 22.0625 C-6.01839844 22.05347656 -5.09929687 22.04445313 -4.15234375 22.03515625 C-3.44207031 22.02355469 -2.73179688 22.01195312 -2 22 C-2.33 23.65 -2.66 25.3 -3 27 C-11.97830935 28.44698966 -11.97830935 28.44698966 -16 26.6875 C-19.95256404 23.35252409 -19.95256404 23.35252409 -20.37109375 20.2421875 C-20.49829375 13.79239915 -20.46584753 8.79810302 -16.4765625 3.52734375 C-11.78644019 -1.32407906 -6.28112185 -1.9848345 0 0 Z " fill="#4494B6" transform="translate(1128,388)"/>
<path d="M0 0 C2.32749345 3.49124017 2.50299316 4.89222251 2 9 C-0.85430304 13.11019637 -4.21995855 14.01102591 -9 15 C-12.4375 15.125 -12.4375 15.125 -15 15 C-14.03223902 18.79547921 -14.03223902 18.79547921 -12 22 C-10.31391034 22.07205511 -8.62499341 22.08386068 -6.9375 22.0625 C-6.01839844 22.05347656 -5.09929688 22.04445313 -4.15234375 22.03515625 C-3.44207031 22.02355469 -2.73179687 22.01195312 -2 22 C-2.33 23.65 -2.66 25.3 -3 27 C-11.97830935 28.44698966 -11.97830935 28.44698966 -16 26.6875 C-19.95256404 23.35252409 -19.95256404 23.35252409 -20.37109375 20.2421875 C-20.49829375 13.79239915 -20.46584753 8.79810302 -16.4765625 3.52734375 C-11.78644019 -1.32407906 -6.28112185 -1.9848345 0 0 Z " fill="#4192B6" transform="translate(977,388)"/>
<path d="M0 0 C2.32749345 3.49124017 2.50299316 4.89222251 2 9 C-0.85430304 13.11019637 -4.21995855 14.01102591 -9 15 C-12.4375 15.125 -12.4375 15.125 -15 15 C-14.03223902 18.79547921 -14.03223902 18.79547921 -12 22 C-10.31391034 22.07205511 -8.62499341 22.08386068 -6.9375 22.0625 C-6.01839844 22.05347656 -5.09929688 22.04445313 -4.15234375 22.03515625 C-3.44207031 22.02355469 -2.73179687 22.01195312 -2 22 C-2.33 23.65 -2.66 25.3 -3 27 C-11.97830935 28.44698966 -11.97830935 28.44698966 -16 26.6875 C-19.95256404 23.35252409 -19.95256404 23.35252409 -20.37109375 20.2421875 C-20.49829375 13.79239915 -20.46584753 8.79810302 -16.4765625 3.52734375 C-11.78644019 -1.32407906 -6.28112185 -1.9848345 0 0 Z " fill="#4192B6" transform="translate(950,388)"/>
<path d="M0 0 C1.65 0 3.3 0 5 0 C5.31465883 1.83296404 5.62660393 3.66639399 5.9375 5.5 C6.11152344 6.5209375 6.28554688 7.541875 6.46484375 8.59375 C7.0602715 12.38362593 7.52415753 16.19326023 8 20 C11.3 13.4 14.6 6.8 18 0 C19.98 0 21.96 0 24 0 C21.81207596 5.71789798 18.99602477 11.09015167 16.19726562 16.52832031 C15.56869745 17.75370426 14.94430136 18.98123781 14.32421875 20.2109375 C7.52179941 33.69999032 7.52179941 33.69999032 2 39 C-0.80608749 39.83246621 -3.03417066 39.94886501 -6 40 C-6.33 38.35 -6.66 36.7 -7 35 C-5.906875 34.773125 -4.81375 34.54625 -3.6875 34.3125 C-0.04671398 33.32233635 -0.04671398 33.32233635 1.8125 31.13671875 C3.69224474 26.17147195 2.5262328 21.64808408 1.6875 16.5 C1.37628889 14.44831197 1.06760575 12.39623855 0.76171875 10.34375 C0.61694092 9.43818359 0.47216309 8.53261719 0.32299805 7.59960938 C0.00452397 5.03641064 -0.0567032 2.5798503 0 0 Z " fill="#4092B5" transform="translate(904,387)"/>
<path d="M0 0 C1.65 0 3.3 0 5 0 C5.31465883 1.83296404 5.62660393 3.66639399 5.9375 5.5 C6.11152344 6.5209375 6.28554688 7.541875 6.46484375 8.59375 C7.0602715 12.38362593 7.52415753 16.19326023 8 20 C11.3 13.4 14.6 6.8 18 0 C19.98 0 21.96 0 24 0 C21.81207596 5.71789798 18.99602477 11.09015167 16.19726562 16.52832031 C15.56869745 17.75370426 14.94430136 18.98123781 14.32421875 20.2109375 C7.52179941 33.69999032 7.52179941 33.69999032 2 39 C-0.80608749 39.83246621 -3.03417066 39.94886501 -6 40 C-6.33 38.35 -6.66 36.7 -7 35 C-5.906875 34.773125 -4.81375 34.54625 -3.6875 34.3125 C-0.04671398 33.32233635 -0.04671398 33.32233635 1.8125 31.13671875 C3.69224474 26.17147195 2.5262328 21.64808408 1.6875 16.5 C1.37628889 14.44831197 1.06760575 12.39623855 0.76171875 10.34375 C0.61694092 9.43818359 0.47216309 8.53261719 0.32299805 7.59960938 C0.00452397 5.03641064 -0.0567032 2.5798503 0 0 Z " fill="#4092B5" transform="translate(574,387)"/>
<path d="M0 0 C1.65 0 3.3 0 5 0 C4.24984418 7.37653219 3.16558465 14.67831776 2 22 C4.39737773 22.62441211 4.39737773 22.62441211 7 23 C12.53404856 19.58191118 13.23128504 12.24197178 14.62890625 6.34765625 C15.10590578 4.23618281 15.5557751 2.11861108 16 0 C17.98 0 19.96 0 22 0 C20.02 9.24 18.04 18.48 16 28 C14.68 28 13.36 28 12 28 C11.67 27.01 11.34 26.02 11 25 C9.7315625 26.0209375 9.7315625 26.0209375 8.4375 27.0625 C5 29 5 29 1.25 28.9375 C-2 28 -2 28 -4 25 C-4.88300591 16.3171085 -2.28088021 8.29873827 0 0 Z " fill="#4193B6" transform="translate(503,387)"/>
<path d="M0 0 C1.32 0 2.64 0 4 0 C4.33 1.32 4.66 2.64 5 4 C5.845625 3.319375 6.69125 2.63875 7.5625 1.9375 C11 0 11 0 14.75 0.0625 C18 1 18 1 20 4 C20.40167911 9.87455702 19.54741335 14.85403238 18 20.5 C17.71382812 21.59054687 17.71382812 21.59054687 17.421875 22.703125 C16.95662755 24.47106531 16.47956407 26.23588933 16 28 C14.35 28 12.7 28 11 28 C11.82678345 20.97234063 12.90248217 13.99001647 14 7 C11.60262227 6.37558789 11.60262227 6.37558789 9 6 C4.07455375 9.04218739 3.32821178 14.73430832 2 20 C1.79246094 20.80179687 1.58492187 21.60359375 1.37109375 22.4296875 C0.8995647 24.28282965 0.44755571 26.14092244 0 28 C-1.65 28 -3.3 28 -5 28 C-4.58384403 18.36598935 -2.34560829 9.30606453 0 0 Z " fill="#4192B6" transform="translate(1082,387)"/>
<path d="M0 0 C2.97 0 5.94 0 9 0 C9 12.21 9 24.42 9 37 C6.03 37 3.06 37 0 37 C0 24.79 0 12.58 0 0 Z " fill="#444A64" transform="translate(839,295)"/>
<path d="M0 0 C6.35903614 -0.48915663 6.35903614 -0.48915663 9.375 1.8125 C11.97312853 5.30998071 12.15876424 8.20184892 12.1875 12.4375 C12.20167969 13.38496094 12.21585938 14.33242188 12.23046875 15.30859375 C11.99328354 18.07843458 11.5049543 19.68184232 10 22 C6.85658007 23.57170996 3.44228549 23.23175783 0 23 C-0.99 22.67 -1.98 22.34 -3 22 C-4.22193249 18.91005577 -4.1340375 15.78965043 -4.125 12.5 C-4.12757813 11.5615625 -4.13015625 10.623125 -4.1328125 9.65625 C-4.01392868 7.2785737 -3.67551722 5.27316904 -3 3 C-2.34 3 -1.68 3 -1 3 C-0.67 2.01 -0.34 1.02 0 0 Z " fill="#EAEDEF" transform="translate(712,302)"/>
<path d="M0 0 C0.804375 0.12375 1.60875 0.2475 2.4375 0.375 C5.61821947 5.1460792 4.93430785 9.72052303 3.90234375 15.234375 C1.51217385 24.89954289 1.51217385 24.89954289 -2.5625 28.375 C-5.1875 28.875 -5.1875 28.875 -7.5625 28.375 C-10.57252669 23.85995997 -10.12304403 19.66977737 -9.5625 14.375 C-6.07042214 0.88835446 -6.07042214 0.88835446 0 0 Z " fill="#E3E4E4" transform="translate(685.5625,382.625)"/>
<path d="M0 0 C0.804375 0.12375 1.60875 0.2475 2.4375 0.375 C5.61821947 5.1460792 4.93430785 9.72052303 3.90234375 15.234375 C1.51217385 24.89954289 1.51217385 24.89954289 -2.5625 28.375 C-5.1875 28.875 -5.1875 28.875 -7.5625 28.375 C-10.57252669 23.85995997 -10.12304403 19.66977737 -9.5625 14.375 C-6.07042214 0.88835446 -6.07042214 0.88835446 0 0 Z " fill="#E3E4E4" transform="translate(656.5625,382.625)"/>
<path d="M0 0 C4.35837447 0.9784106 5.62362158 1.88571894 8.0625 5.6875 C8.80863696 11.1849808 9.07617365 16.425991 6.77734375 21.5546875 C5.0625 23.6875 5.0625 23.6875 1.125 24.3125 C-1.8780608 24.08021905 -2.88996182 23.72077673 -5.4375 21.9375 C-7.94962275 16.49456739 -8.12704703 10.30292102 -6.2421875 4.57421875 C-4.58826611 1.6624832 -3.23701073 0.75759826 0 0 Z " fill="#E1E2E3" transform="translate(875.9375,301.3125)"/>
<path d="M0 0 C2.51675702 3.77513553 2.36808778 5.5093291 2 10 C0.9810613 14.26680582 -0.35761551 17.28816854 -3.3125 20.5625 C-6 22 -6 22 -9.1875 21.875 C-12 21 -12 21 -14 19 C-14.77243126 12.8606762 -14.63389944 7.19128491 -11 2 C-7.58875905 -1.77673106 -4.73563438 -1.22775706 0 0 Z " fill="#4695B7" transform="translate(715,379)"/>
<path d="M0 0 C2.51675702 3.77513553 2.36808778 5.5093291 2 10 C0.9810613 14.26680582 -0.35761551 17.28816854 -3.3125 20.5625 C-6 22 -6 22 -9.1875 21.875 C-12 21 -12 21 -14 19 C-14.77243126 12.8606762 -14.63389944 7.19128491 -11 2 C-7.58875905 -1.77673106 -4.73563438 -1.22775706 0 0 Z " fill="#4393B6" transform="translate(735,394)"/>
<path d="M0 0 C1.051875 -0.02126953 1.051875 -0.02126953 2.125 -0.04296875 C4 0.1875 4 0.1875 6 2.1875 C6.44360072 5.14602109 6.32412652 8.13698451 6.3125 11.125 C6.32861328 11.94935547 6.34472656 12.77371094 6.36132812 13.62304688 C6.36197266 14.41646484 6.36261719 15.20988281 6.36328125 16.02734375 C6.36775269 17.11583618 6.36775269 17.11583618 6.37231445 18.22631836 C5.89170869 20.75792889 5.02436371 21.63440411 3 23.1875 C-0.81974849 23.85180408 -2.52283633 23.46757433 -5.875 21.5 C-9.15204876 16.39165929 -8.71775457 11.10330874 -8 5.1875 C-6.30179668 0.78393382 -4.59193073 0.04220525 0 0 Z " fill="#E1E2E2" transform="translate(862,235.8125)"/>
<path d="M0 0 C1.4883163 0.00574353 2.97660671 0.01875734 4.46484375 0.03515625 C7.08421875 0.05578125 9.70359375 0.07640625 12.40234375 0.09765625 C12.40234375 5.37765625 12.40234375 10.65765625 12.40234375 16.09765625 C8.47328125 16.12859375 8.47328125 16.12859375 4.46484375 16.16015625 C3.63863525 16.16926025 2.81242676 16.17836426 1.96118164 16.18774414 C0.10800616 16.1948957 -1.74514933 16.14794145 -3.59765625 16.09765625 C-4.59765625 15.09765625 -4.59765625 15.09765625 -4.73046875 11.97265625 C-4.72789062 10.69390625 -4.7253125 9.41515625 -4.72265625 8.09765625 C-4.72523438 6.81890625 -4.7278125 5.54015625 -4.73046875 4.22265625 C-4.54139165 -0.22621668 -4.54695191 0.12342432 0 0 Z " fill="#375C6A" transform="translate(423.59765625,46.90234375)"/>
<path d="M0 0 C5.28 0 10.56 0 16 0 C16 5.28 16 10.56 16 16 C10.72 16 5.44 16 0 16 C0 10.72 0 5.44 0 0 Z " fill="#4494B7" transform="translate(402,14)"/>
<path d="M0 0 C-0.66984988 7.86013724 -2.30233416 15.38066256 -4.0625 23.0625 C-4.48499023 24.93325195 -4.48499023 24.93325195 -4.91601562 26.84179688 C-5.60632682 29.89554639 -6.30108982 32.9482092 -7 36 C-8.98 36 -10.96 36 -13 36 C-12.77280273 34.88757935 -12.77280273 34.88757935 -12.54101562 33.75268555 C-11.8576663 30.39822883 -11.17878185 27.0428838 -10.5 23.6875 C-10.26152344 22.52025391 -10.02304687 21.35300781 -9.77734375 20.15039062 C-9.55175781 19.03212891 -9.32617188 17.91386719 -9.09375 16.76171875 C-8.88427734 15.73006592 -8.67480469 14.69841309 -8.45898438 13.63549805 C-7.91421387 10.95327534 -7.91421387 10.95327534 -8 8 C-8.5775 8.515625 -9.155 9.03125 -9.75 9.5625 C-12 11 -12 11 -14.25 10.6875 C-14.8275 10.460625 -15.405 10.23375 -16 10 C-15.67041512 7.08444144 -15.21595722 6.17436546 -12.890625 4.296875 C-12.01921875 3.78640625 -11.1478125 3.2759375 -10.25 2.75 C-9.38890625 2.22921875 -8.5278125 1.7084375 -7.640625 1.171875 C-4.84282972 -0.06975013 -3.02234673 -0.23917852 0 0 Z " fill="#4192B6" transform="translate(634,379)"/>
<path d="M0 0 C1.98 0 3.96 0 6 0 C0.64974842 28.35792096 0.64974842 28.35792096 -2 39 C-3.65 39 -5.3 39 -7 39 C-6.48464687 30.23220085 -4.85003177 21.87229997 -2.9375 13.3125 C-2.65583984 12.02666016 -2.37417969 10.74082031 -2.08398438 9.41601562 C-1.39527758 6.27597956 -0.70050831 3.1374204 0 0 Z " fill="#4192B6" transform="translate(866,376)"/>
<path d="M0 0 C1.98 0 3.96 0 6 0 C0.64974842 28.35792096 0.64974842 28.35792096 -2 39 C-3.65 39 -5.3 39 -7 39 C-6.48464687 30.23220085 -4.85003177 21.87229997 -2.9375 13.3125 C-2.65583984 12.02666016 -2.37417969 10.74082031 -2.08398438 9.41601562 C-1.39527758 6.27597956 -0.70050831 3.1374204 0 0 Z " fill="#4192B6" transform="translate(566,376)"/>
<path d="M0 0 C1.32 0 2.64 0 4 0 C4.33 1.32 4.66 2.64 5 4 C5.350625 3.525625 5.70125 3.05125 6.0625 2.5625 C8.84163543 0.32126175 11.5144717 0.32882342 15 0 C14.9375 2.3125 14.9375 2.3125 14 5 C11.69631264 6.06652192 9.35981813 7.06421005 7 8 C3.54226662 11.42375074 2.85384734 15.6632094 1.8125 20.25 C1.63525391 20.99507813 1.45800781 21.74015625 1.27539062 22.5078125 C0.84165807 24.33652271 0.41965403 26.16800779 0 28 C-1.65 28 -3.3 28 -5 28 C-4.58384403 18.36598935 -2.34560829 9.30606453 0 0 Z " fill="#4192B6" transform="translate(452,387)"/>
<path d="M0 0 C3 0.25 3 0.25 5 2.25 C5.86302185 7.85403796 5.11940996 12.45090775 2 17.25 C-0.78863007 18.64431504 -2.92078868 18.50660094 -6 18.25 C-8.49455917 14.50816125 -8.37606522 12.68756964 -8 8.25 C-4.73941368 0.39495114 -4.73941368 0.39495114 0 0 Z " fill="#E4E4E4" transform="translate(887,391.75)"/>
<path d="M0 0 C3 0.25 3 0.25 5 2.25 C5.86302185 7.85403796 5.11940996 12.45090775 2 17.25 C-0.78863007 18.64431504 -2.92078868 18.50660094 -6 18.25 C-8.49455917 14.50816125 -8.37606522 12.68756964 -8 8.25 C-4.73941368 0.39495114 -4.73941368 0.39495114 0 0 Z " fill="#E4E4E4" transform="translate(482,391.75)"/>
<path d="M0 0 C2 2 2 2 2.3125 5.1875 C1.90787355 10.12394274 0.49418963 13.89455097 -2.375 17.9375 C-4.68530733 19.44808556 -6.30152436 19.34595842 -9 19 C-11 17 -11 17 -11.3125 13.25 C-11.18895323 8.38755207 -9.48361974 5.02311783 -6.625 1.125 C-4.32303336 -0.46866921 -2.7333659 -0.35043153 0 0 Z " fill="#E3E4E4" transform="translate(846,392)"/>
<path d="M0 0 C2 2 2 2 2.375 5.125 C1.84651004 10.58606291 -0.09667899 15.09667899 -4 19 C-6.5 19.25 -6.5 19.25 -9 19 C-11 17 -11 17 -11.375 13.375 C-11.27197904 8.67896113 -9.6354025 4.85692118 -7 1 C-4.48718205 -0.25640898 -2.78302919 -0.20872719 0 0 Z " fill="#E3E4E4" transform="translate(1152,392)"/>
<path d="M0 0 C2 2 2 2 2.375 5.125 C1.84651004 10.58606291 -0.09667899 15.09667899 -4 19 C-6.5 19.25 -6.5 19.25 -9 19 C-11 17 -11 17 -11.375 13.375 C-11.27197904 8.67896113 -9.6354025 4.85692118 -7 1 C-4.48718205 -0.25640898 -2.78302919 -0.20872719 0 0 Z " fill="#E3E4E4" transform="translate(545,392)"/>
<path d="M0 0 C1.32 0.33 2.64 0.66 4 1 C-1.50521247 8.49416077 -1.50521247 8.49416077 -4.15991211 12.0793457 C-7.28642561 16.30204175 -10.39102287 20.5349868 -13.42578125 24.82421875 C-13.9559082 25.5615625 -14.48603516 26.29890625 -15.03222656 27.05859375 C-16.03546172 28.45428784 -17.02623144 29.85904601 -18.00292969 31.2734375 C-19.37890625 33.16796875 -19.37890625 33.16796875 -22 36 C-24.66381836 36.17700195 -24.66381836 36.17700195 -27 36 C-22.9656938 29.76189528 -18.66321165 23.83060486 -14.0625 18 C-13.48048828 17.2575 -12.89847656 16.515 -12.29882812 15.75 C-11.13152383 14.26081445 -9.96308295 12.77251906 -8.79345703 11.28515625 C-5.84917342 7.53365957 -2.92470173 3.76677094 0 0 Z " fill="#4695B8" transform="translate(730,379)"/>
<path d="M0 0 C2.64 0 5.28 0 8 0 C8.46067504 6.96131165 8.66823041 13.37110482 4 19 C1.375 20.0625 1.375 20.0625 -1 20 C-1.66 19.67 -2.32 19.34 -3 19 C-2.47731534 16.23723823 -1.89130413 13.6739124 -1 11 C-0.77820215 9.10787263 -0.59385985 7.21115528 -0.4375 5.3125 C-0.31181641 3.82169922 -0.31181641 3.82169922 -0.18359375 2.30078125 C-0.12300781 1.54152344 -0.06242188 0.78226562 0 0 Z " fill="#4C536B" transform="translate(989,324)"/>
<path d="M0 0 C1.98 0 3.96 0 6 0 C4.68 0.33 3.36 0.66 2 1 C2 8.92 2 16.84 2 25 C9.92 25 17.84 25 26 25 C26 17.08 26 9.16 26 1 C24.68 0.67 23.36 0.34 22 0 C23.65 0 25.3 0 27 0 C27 8.91 27 17.82 27 27 C18.09 27 9.18 27 0 27 C0 18.09 0 9.18 0 0 Z " fill="#506F7D" transform="translate(363,50)"/>
<path d="M0 0 C6.36582018 -0.48043926 6.36582018 -0.48043926 9.0625 1.5625 C10.47274844 5.22914595 9.44737076 7.44736268 8 11 C4.91111478 13.05925681 4.29064073 13.2390374 0.8125 13.125 C-1.0746875 13.063125 -1.0746875 13.063125 -3 13 C-2.01 8.71 -1.02 4.42 0 0 Z " fill="#E4E4E4" transform="translate(429,384)"/>
<path d="M0 0 C1.37478516 0.01740234 1.37478516 0.01740234 2.77734375 0.03515625 C3.69644531 0.04417969 4.61554687 0.05320313 5.5625 0.0625 C6.27277344 0.07410156 6.98304688 0.08570313 7.71484375 0.09765625 C8.0078125 6.15234375 8.0078125 6.15234375 7.71484375 8.09765625 C4.04137604 10.54663472 2.05127976 10.41303341 -2.28515625 10.09765625 C-2.94515625 9.43765625 -3.60515625 8.77765625 -4.28515625 8.09765625 C-3.58828689 0.15334559 -3.58828689 0.15334559 0 0 Z " fill="#DFE4E7" transform="translate(817.28515625,248.90234375)"/>
<path d="M0 0 C2.05078125 0.03255208 4.1015625 0.06510417 6.15234375 0.09765625 C6.48234375 1.08765625 6.81234375 2.07765625 7.15234375 3.09765625 C7.81234375 3.09765625 8.47234375 3.09765625 9.15234375 3.09765625 C9.15234375 3.75765625 9.15234375 4.41765625 9.15234375 5.09765625 C8.16234375 5.09765625 7.17234375 5.09765625 6.15234375 5.09765625 C6.15234375 4.10765625 6.15234375 3.11765625 6.15234375 2.09765625 C3.84234375 2.09765625 1.53234375 2.09765625 -0.84765625 2.09765625 C-0.84765625 13.64765625 -0.84765625 25.19765625 -0.84765625 37.09765625 C1.79234375 37.09765625 4.43234375 37.09765625 7.15234375 37.09765625 C7.15234375 37.42765625 7.15234375 37.75765625 7.15234375 38.09765625 C3.85234375 38.09765625 0.55234375 38.09765625 -2.84765625 38.09765625 C-2.87230553 32.84660183 -2.89049193 27.5955808 -2.90258789 22.34448242 C-2.90762843 20.55671604 -2.91446079 18.7689538 -2.9230957 16.98120117 C-2.93517355 14.41714457 -2.94088719 11.85314228 -2.9453125 9.2890625 C-2.95047379 8.48489395 -2.95563507 7.6807254 -2.96095276 6.85218811 C-2.9611484 4.9336391 -2.90967608 3.01520257 -2.84765625 1.09765625 C-1.84765625 0.09765625 -1.84765625 0.09765625 0 0 Z " fill="#636A7E" transform="translate(762.84765625,227.90234375)"/>
<path d="M0 0 C2.97 0 5.94 0 9 0 C9 2.64 9 5.28 9 8 C5.60535554 10.08901197 2.95158471 10.34361606 -1 10 C-3 8 -3 8 -3.125 5.375 C-3.08375 4.59125 -3.0425 3.8075 -3 3 C-2.01 2.67 -1.02 2.34 0 2 C0 1.34 0 0.68 0 0 Z " fill="#E4E9EB" transform="translate(760,182)"/>
<path d="M0 0 C3.3 0 6.6 0 10 0 C10 12.21 10 24.42 10 37 C9.67 37 9.34 37 9 37 C9 25.12 9 13.24 9 1 C6.69 1.33 4.38 1.66 2 2 C2 9.92 2 17.84 2 26 C1.34 26.33 0.68 26.66 0 27 C0 18.09 0 9.18 0 0 Z " fill="#677183" transform="translate(789,295)"/>
<path d="M0 0 C0.70125 0.01417969 1.4025 0.02835938 2.125 0.04296875 C3.176875 0.05263672 3.176875 0.05263672 4.25 0.0625 C6.125 0.23046875 6.125 0.23046875 8.125 1.23046875 C8.125 3.54046875 8.125 5.85046875 8.125 8.23046875 C3.505 8.23046875 -1.115 8.23046875 -5.875 8.23046875 C-3.26529689 0.40135941 -3.26529689 0.40135941 0 0 Z " fill="#DDE3E5" transform="translate(1009.875,168.76953125)"/>
<path d="M0 0 C1.22589844 0.01353516 1.22589844 0.01353516 2.4765625 0.02734375 C3.41628906 0.04474609 3.41628906 0.04474609 4.375 0.0625 C4.5625 3.4375 4.5625 3.4375 4.375 7.0625 C0.90501271 9.37582486 -0.55009248 9.40207563 -4.625 9.0625 C-5.615 8.4025 -6.605 7.7425 -7.625 7.0625 C-7.25 4.125 -7.25 4.125 -6.625 1.0625 C-4.21954362 -0.14022819 -2.67503047 -0.03821472 0 0 Z " fill="#EBEEEF" transform="translate(735.625,248.9375)"/>
<path d="M0 0 C2.97 0 5.94 0 9 0 C9.36103152 6.3782235 9.36103152 6.3782235 7.875 8.9375 C5.15050101 10.48138276 3.07108055 10.3267107 0 10 C-0.66 9.34 -1.32 8.68 -2 8 C-1.69347955 5.0574037 -1.32728846 2.65457692 0 0 Z " fill="#ECEFF0" transform="translate(935,182)"/>
<path d="M0 0 C3.3 0 6.6 0 10 0 C10 0.66 10 1.32 10 2 C10.66 2.33 11.32 2.66 12 3 C10.68 3 9.36 3 8 3 C8 2.34 8 1.68 8 1 C5.69 1 3.38 1 1 1 C1 12.55 1 24.1 1 36 C3.64 36 6.28 36 9 36 C9 27.09 9 18.18 9 9 C9.33 9 9.66 9 10 9 C10 18.24 10 27.48 10 37 C6.7 37 3.4 37 0 37 C0 24.79 0 12.58 0 0 Z " fill="#636B7E" transform="translate(1039,229)"/>
<path d="M0 0 C2.38164192 2.84260487 3 4.28405267 3 8 C-0.96 8 -4.92 8 -9 8 C-10 3 -10 3 -9 1.1875 C-5.85816188 -0.67796638 -3.56257237 -0.50893891 0 0 Z " fill="#E6EAEC" transform="translate(727,169)"/>
<path d="M0 0 C2.5625 0.3125 2.5625 0.3125 4.4375 1.5 C5.5625 3.3125 5.5625 3.3125 5.375 5.875 C4.5625 8.3125 4.5625 8.3125 2.5625 10.3125 C-0.4375 10.625 -0.4375 10.625 -3.4375 10.3125 C-5.4375 7.3125 -5.4375 7.3125 -5.1875 4.75 C-4.19253762 1.51637226 -3.41216263 0.43745675 0 0 Z " fill="#4C536B" transform="translate(843.4375,279.6875)"/>
<path d="M0 0 C0.99 0.33 1.98 0.66 3 1 C3.19055047 5.76376184 3.07190488 9.64899976 1 14 C-1.0625 14.9375 -1.0625 14.9375 -3 15 C-4 14 -4 14 -4.1875 10.75 C-3.95681055 6.13621098 -3.28445883 3.28445883 0 0 Z " fill="#F4F7F8" transform="translate(729,397)"/>
<path d="M0 0 C0.66 0.33 1.32 0.66 2 1 C2 2.98 2 4.96 2 7 C-1.96 7 -5.92 7 -10 7 C-10 5.35 -10 3.7 -10 2 C-6.59659693 -0.09440189 -3.95562822 -0.25797575 0 0 Z " fill="#F1F3F4" transform="translate(909,236)"/>
<path d="M0 0 C6.24795675 -0.02527124 12.49590041 -0.04283344 18.74389648 -0.05493164 C20.87118014 -0.05997298 22.99846031 -0.06680591 25.12573242 -0.07543945 C28.17627826 -0.08751379 31.22677845 -0.09323014 34.27734375 -0.09765625 C35.71327126 -0.10539818 35.71327126 -0.10539818 37.1782074 -0.11329651 C38.49946373 -0.11340981 38.49946373 -0.11340981 39.84741211 -0.11352539 C40.62684677 -0.115746 41.40628143 -0.11796661 42.20933533 -0.12025452 C44 0 44 0 45 1 C45.07313567 3.53049402 45.09247527 6.03304837 45.0625 8.5625 C45.05798828 9.27341797 45.05347656 9.98433594 45.04882812 10.71679688 C45.03700864 12.47790013 45.01907263 14.23896036 45 16 C43 13 43 13 43 2 C28.81 1.67 14.62 1.34 0 1 C0 0.67 0 0.34 0 0 Z " fill="#5A7783" transform="translate(396,145)"/>
<path d="M0 0 C0.99 0.33 1.98 0.66 3 1 C3.19055047 5.76376184 3.07190488 9.64899976 1 14 C-1.078125 14.6640625 -1.078125 14.6640625 -3 15 C-3.08142927 13.2507786 -3.13938541 11.50045458 -3.1875 9.75 C-3.22230469 8.77546875 -3.25710938 7.8009375 -3.29296875 6.796875 C-2.96075202 3.62531258 -2.11327721 2.32959693 0 0 Z " fill="#F9FAFB" transform="translate(709,382)"/>
<path d="M0 0 C0.33 1.98 0.66 3.96 1 6 C-2.96 6 -6.92 6 -11 6 C-11 2 -11 2 -9.4375 0.1875 C-6.0296051 -1.47275649 -3.62986341 -0.76785572 0 0 Z " fill="#F9FAFA" transform="translate(1018,237)"/>
<path d="M0 0 C0.33 1.65 0.66 3.3 1 5 C-1.71182212 7.60334924 -2.89133813 7.99456691 -6.75 8.1875 C-8.35875 8.0946875 -8.35875 8.0946875 -10 8 C-8.2565271 1.8307882 -6.61067842 -0.35733397 0 0 Z " fill="#E3E3E4" transform="translate(1124,391)"/>
<path d="M0 0 C0.33 1.65 0.66 3.3 1 5 C-1.71182212 7.60334924 -2.89133813 7.99456691 -6.75 8.1875 C-8.35875 8.0946875 -8.35875 8.0946875 -10 8 C-7.95662621 2.18424383 -6.49689233 -0.52677505 0 0 Z " fill="#F0F4F6" transform="translate(973,391)"/>
<path d="M0 0 C0.33 1.65 0.66 3.3 1 5 C-1.71182212 7.60334924 -2.89133813 7.99456691 -6.75 8.1875 C-8.35875 8.0946875 -8.35875 8.0946875 -10 8 C-7.95662621 2.18424383 -6.49689233 -0.52677505 0 0 Z " fill="#F0F4F6" transform="translate(946,391)"/>
<path d="M0 0 C3.96 0 7.92 0 12 0 C12 1.65 12 3.3 12 5 C8.04 5 4.08 5 0 5 C0 3.35 0 1.7 0 0 Z " fill="#3F91B5" transform="translate(983,399)"/>
<path d="M0 0 C2.97 0 5.94 0 9 0 C9.33 0.99 9.66 1.98 10 3 C10.66 3.33 11.32 3.66 12 4 C10.68 4 9.36 4 8 4 C8 3.34 8 2.68 8 2 C5.69 1.67 3.38 1.34 1 1 C1 12.88 1 24.76 1 37 C0.67 37 0.34 37 0 37 C0 24.79 0 12.58 0 0 Z " fill="#6B7385" transform="translate(904,295)"/>
<path d="M0 0 C0.66 0 1.32 0 2 0 C2 1.98 2 3.96 2 6 C-2.95 6 -7.9 6 -13 6 C-13.33 5.01 -13.66 4.02 -14 3 C-13.34 2.34 -12.68 1.68 -12 1 C-12 1.99 -12 2.98 -12 4 C-8.04 4 -4.08 4 0 4 C0 2.68 0 1.36 0 0 Z " fill="#7D8796" transform="translate(911,239)"/>
<path d="M0 0 C-1.58561638 3.85593074 -4.06509954 6.33216291 -7 9.25 C-7.886875 10.14203125 -8.77375 11.0340625 -9.6875 11.953125 C-12 14 -12 14 -14 14 C-12.4722133 10.56247993 -10.49818944 7.81046312 -8 5 C-7.34 5 -6.68 5 -6 5 C-6 4.34 -6 3.68 -6 3 C-2.53846154 0 -2.53846154 0 0 0 Z " fill="#446573" transform="translate(487,152)"/>
<path d="M0 0 C2 3 2 3 2 7 C-2.62 7.33 -7.24 7.66 -12 8 C-12.33 7.01 -12.66 6.02 -13 5 C-12.34 4.01 -11.68 3.02 -11 2 C-11 3.32 -11 4.64 -11 6 C-7.04 6 -3.08 6 1 6 C0.67 4.02 0.34 2.04 0 0 Z " fill="#919CA8" transform="translate(1018,237)"/>
<path d="M0 0 C0.66 0 1.32 0 2 0 C3.59412284 3.18824568 3.10174735 6.62896662 3.0625 10.125 C3.05798828 10.87910156 3.05347656 11.63320313 3.04882812 12.41015625 C3.03703499 14.27347127 3.01909942 16.13674555 3 18 C2.67 18 2.34 18 2 18 C1.67 13.71 1.34 9.42 1 5 C0.01 5.66 -0.98 6.32 -2 7 C-1.42415568 4.61435923 -0.77772405 2.33317216 0 0 Z " fill="#778C98" transform="translate(402,258)"/>
<path d="M0 0 C0.33 0 0.66 0 1 0 C1 5.28 1 10.56 1 16 C0.67 16 0.34 16 0 16 C-0.33 13.36 -0.66 10.72 -1 8 C-1.99 8.495 -1.99 8.495 -3 9 C-2.01 6.03 -1.02 3.06 0 0 Z " fill="#CAD0D2" transform="translate(696,231)"/>
<path d="M0 0 C-1.37154504 2.95409701 -2.98863724 5.44008376 -5 8 C-2.36 8 0.28 8 3 8 C3 8.33 3 8.66 3 9 C0.03 9 -2.94 9 -6 9 C-5.38983051 3.50847458 -5.38983051 3.50847458 -3.5625 1.125 C-2 0 -2 0 0 0 Z " fill="#717D8C" transform="translate(754,164)"/>
<path d="M0 0 C0.66 0.33 1.32 0.66 2 1 C0.7934375 2.2375 0.7934375 2.2375 -0.4375 3.5 C-3.55500586 7.18112274 -3.75501064 10.26353911 -4 15 C-4.33 15 -4.66 15 -5 15 C-5 11.7 -5 8.4 -5 5 C-4.34 5 -3.68 5 -3 5 C-2.5359375 4.0409375 -2.5359375 4.0409375 -2.0625 3.0625 C-1 1 -1 1 0 0 Z " fill="#666F81" transform="translate(928,178)"/>
<path d="M0 0 C1.3340394 4.00211819 0.40012984 6.07963644 -1 10 C-2.578125 11.71875 -2.578125 11.71875 -4 13 C-3.52343588 11.20763933 -3.04366502 9.41613103 -2.5625 7.625 C-2.29566406 6.62726563 -2.02882813 5.62953125 -1.75390625 4.6015625 C-1 2 -1 2 0 0 Z " fill="#677F8B" transform="translate(365,234)"/>
</svg>
